<?xml version="1.0" encoding="UTF-8"?><svg id="Ebene_1" xmlns="http://www.w3.org/2000/svg" viewBox="0 0 300 300"><defs><style>.cls-1{fill:#320064;}</style></defs><path class="cls-1" d="M166.96,141.52c7.32,0,13.28-5.96,13.28-13.28l-.12-33.45c0-8.23-14.3-14.9-31.94-14.9s-31.94,6.67-31.94,14.9v15.22h32.2v5.04h-50.81c-8.23,0-14.9,14.3-14.9,31.94s6.67,31.94,14.9,31.94h10.08v-14.13c0-12.83,10.44-23.28,23.28-23.28h35.97Zm-37.1-40.44c-3.05,0-5.52-2.47-5.52-5.52s2.47-5.52,5.52-5.52,5.52,2.47,5.52,5.52-2.47,5.52-5.52,5.52Z"/><path class="cls-1" d="M200.24,115.66h-10v12.58c0,12.83-10.44,23.28-23.28,23.28h-35.97c-7.32,0-13.28,5.96-13.28,13.28l.04,35c0,8.23,14.3,14.9,31.94,14.9s31.94-6.67,31.94-14.9v-15.22h-32.2v-5.04h50.81c8.23,0,14.9-14.3,14.9-31.94s-6.67-31.94-14.9-31.94Zm-32.24,77.85c3.05,0,5.52,2.47,5.52,5.52s-2.47,5.52-5.52,5.52-5.52-2.47-5.52-5.52,2.47-5.52,5.52-5.52Z"/></svg>