<svg xmlns="http://www.w3.org/2000/svg" xmlns:xlink="http://www.w3.org/1999/xlink" viewBox="0 0 80 88"><defs><path id="0" d="M.066.325h42.659v39.211H.065z"/><mask id="1" fill="#fff"><use xlink:href="#0"/></mask></defs><g fill="none" fill-rule="evenodd"><path fill="#343534" d="m23.01 87.19v-.63h-.304c-.275 0-.405-.159-.405-.427v-1.982h.709v-.565h-.71v-1.114h-.737v1.114h-.42v.565h.42v2.02c0 .529.318 1.02 1 1.02h.442zm3.827-1.62v-.327c0-1.042-.572-1.765-1.556-1.765-.94 0-1.556.687-1.556 1.874 0 1.396.731 1.881 1.65 1.881.644 0 .999-.195 1.375-.571l-.47-.442c-.26.26-.478.376-.89.376-.6 0-.934-.398-.934-1.027h2.381m-.73-.514h-1.65c.007-.224.021-.333.093-.5.116-.274.384-.462.731-.462.348 0 .608.188.724.463.072.166.094.275.101.5m4.363 1.656l-.506-.485c-.232.254-.413.348-.702.348a.827 .827 0 0 1 -.68 -.326c-.16-.203-.218-.47-.218-.897 0-.427.058-.687.218-.89a.826 .826 0 0 1 .68 -.326c.29 0 .47.094.702.347l.506-.492c-.347-.369-.702-.513-1.208-.513-.825 0-1.636.5-1.636 1.874 0 1.375.81 1.881 1.636 1.881.506 0 .86-.152 1.208-.52m3.814.477v-2.366c0-.796-.456-1.346-1.274-1.346-.362 0-.695.137-.948.412v-1.852h-.738v5.152h.738v-2.25c0-.55.333-.804.745-.804.413 0 .739.246.739.803v2.25h.738zm4.11 0v-2.345c0-.412-.087-.76-.37-1.034-.216-.21-.528-.333-.904-.333-.369 0-.723.137-.977.412v-.369h-.723v3.669h.738v-2.236c0-.565.347-.818.76-.818.412 0 .738.246.738.818v2.236h.738m1.114-4.393h.782v-.781h-.782v.781m.022 4.393h.738v-3.669h-.738v3.669m5.13 0l-1.432-2.229 1.273-1.44h-.897l-1.426 1.693v-3.176h-.738v5.152h.738v-1.078l.543-.616 1.028 1.694h.911m7.692 0v-2.345c0-.412-.109-.76-.39-1.034-.218-.21-.55-.333-.927-.333-.485 0-.854.173-1.15.535-.232-.354-.587-.535-1.043-.535-.369 0-.73.144-.976.412v-.369h-.724v3.669h.738v-2.236c0-.565.347-.818.76-.818.412 0 .737.246.737.818v2.236h.739v-2.273c0-.529.362-.782.76-.782.412 0 .738.246.738.818v2.236h.738m1.114-4.392h.782v-.781h-.782v.781m.022 4.393h.738v-3.669h-.738v3.669m3.444 0v-.63h-.303c-.275 0-.406-.159-.406-.427v-1.982h.71v-.565h-.71v-1.114h-.738v1.114h-.42v.565h.42v2.02c0 .529.319 1.02 1.01 1.02h.441zm2.475 0v-.63h-.304c-.275 0-.405-.159-.405-.427v-1.982h.71v-.565h-.71v-1.114h-.738v1.114h-.42v.565h.42v2.02c0 .529.318 1.02 1.01 1.02h.441zm3.827-1.62v-.327c0-1.042-.571-1.765-1.555-1.765-.941 0-1.556.687-1.556 1.874 0 1.396.73 1.881 1.65 1.881.644 0 .998-.195 1.375-.571l-.47-.442c-.261.26-.478.376-.89.376-.601 0-.934-.398-.934-1.027h2.38m-.73-.514h-1.65c.007-.224.021-.333.094-.5.116-.274.383-.462.73-.462.348 0 .608.188.724.463.073.166.094.275.102.5m3.147 2.134v-.63h-.325c-.297 0-.398-.145-.398-.427v-4.095h-.738v4.139c0 .542.303 1.013 1 1.013h.456m2.25 0v-.63h-.325c-.297 0-.398-.145-.398-.427v-4.095h-.738v4.139c0 .542.304 1.013 1 1.013h.456m3.51 0v-2.453c0-.832-.507-1.26-1.513-1.26-.607 0-.97.124-1.316.529l.484.456c.203-.26.398-.355.804-.355.571 0 .803.224.803.688v.26h-.97c-.84 0-1.266.441-1.266 1.057 0 .311.101.593.29.788.224.225.527.333.983.333.456 0 .71-.108.977-.376v.333h.724m-.738-1.324c0 .26-.05.434-.16.542-.195.188-.405.21-.687.21-.463 0-.673-.188-.673-.52 0-.334.224-.529.659-.529h.86v.297m4.849 1.324v-2.345c0-.412-.087-.76-.369-1.034-.217-.21-.528-.333-.905-.333-.369 0-.723.137-.976.412v-.369h-.724v3.669h.738v-2.236c0-.565.347-.818.76-.818.412 0 .738.246.738.818v2.236h.738m3.965 0v-5.153h-.738v1.852c-.267-.318-.571-.412-.962-.412-.37 0-.688.123-.89.325-.37.37-.413.992-.413 1.55 0 .556.044 1.186.413 1.555.202.203.528.325.897.325.398 0 .695-.101.97-.434v.39h.723zm-.738-1.838c0 .651-.094 1.223-.76 1.223-.665 0-.766-.572-.766-1.223 0-.651.1-1.216.767-1.216.665 0 .76.565.76 1.216m-54.673-6.202v-2.367c0-.795-.456-1.346-1.273-1.346-.362 0-.695.138-.948.413v-1.853h-.738v5.153h.738v-2.25c0-.55.333-.804.745-.804s.738.246.738.803v2.25h.738zm2.938-4.371h.666v-.782h-.666v.782m-1.563 0h.666v-.782h-.666v.782m2.649 2.533c0-.616-.087-1.079-.435-1.44-.238-.246-.6-.435-1.1-.435-.499 0-.853.189-1.092.435-.348.361-.434.824-.434 1.44 0 .622.086 1.085.434 1.447.239.246.593.434 1.092.434.5 0 .862-.188 1.1-.434.348-.362.435-.825.435-1.447m-.739 0c0 .398-.029.781-.253 1a.753 .753 0 0 1 -.543 .217 .736 .736 0 0 1 -.535 -.217c-.224-.224-.253-.607-.253-1 0-.398.029-.782.253-1.01a.73 .73 0 0 1 .535 -.21c.218 0 .406.072.543.21.224.224.253.608.253 1.01m4.697 1.838v-2.367c0-.795-.456-1.346-1.274-1.346-.362 0-.695.138-.948.413v-1.853h-.737v5.153h.738v-2.25c0-.55.333-.804.746-.804.412 0 .738.246.738.803v2.25h.738zm4.06-1.62v-.327c0-1.042-.572-1.766-1.557-1.766-.94 0-1.555.688-1.555 1.875 0 1.396.73 1.881 1.65 1.881.644 0 .998-.195 1.374-.572l-.47-.441c-.26.26-.478.376-.89.376-.6 0-.934-.398-.934-1.027h2.381zm-.732-.515h-1.65c.008-.224.022-.333.095-.5.115-.274.383-.463.73-.463.348 0 .608.189.724.464.072.166.094.275.101.499m4.284-1.23c-.254-.254-.521-.348-.876-.348-.412 0-.789.182-.977.442v-.398h-.723v3.669h.738v-2.23c0-.506.333-.824.73-.824.254 0 .384.08.55.246l.558-.557m3.29 1.744v-.326c0-1.042-.571-1.766-1.555-1.766-.94 0-1.556.688-1.556 1.875 0 1.396.73 1.881 1.65 1.881.644 0 .998-.195 1.375-.572l-.47-.441c-.261.26-.478.376-.89.376-.601 0-.934-.398-.934-1.027h2.38m-.73-.514h-1.65c.007-.224.022-.333.094-.5.116-.274.383-.463.73-.463.348 0 .609.189.724.464.073.166.095.275.102.499m5.03-.905v-.564h-.731v-.528c0-.268.13-.427.405-.427h.326v-.63h-.463c-.688 0-1.01.492-1.01 1.02v.565h-.42v.564h.42v3.04h.738v-3.04h.73zm3.364 3.04v-2.454c0-.832-.507-1.259-1.512-1.259-.608 0-.97.123-1.317.529l.484.456c.203-.261.398-.355.804-.355.571 0 .803.224.803.687v.26h-.97c-.84 0-1.266.442-1.266 1.057 0 .312.101.594.29.79.224.223.528.332.983.332.456 0 .71-.109.977-.376v.333h.724m-.738-1.325c0 .26-.05.435-.16.543-.195.188-.405.21-.687.21-.463 0-.673-.188-.673-.521s.225-.528.659-.528h.86v.296m4.531.847l-.507-.485c-.231.253-.412.347-.702.347a.827 .827 0 0 1 -.68 -.325c-.16-.203-.217-.47-.217-.897 0-.427.058-.687.217-.89a.826 .826 0 0 1 .68 -.326c.29 0 .47.094.702.347l.507-.492c-.348-.369-.702-.514-1.209-.514-.825 0-1.635.5-1.635 1.875 0 1.374.81 1.881 1.635 1.881.507 0 .861-.152 1.209-.521m3.813.478v-2.367c0-.795-.456-1.346-1.273-1.346-.362 0-.695.138-.948.413v-1.853h-.738v5.153h.738v-2.25c0-.55.333-.804.745-.804s.738.246.738.803v2.25h.738m3.85-1.121c0-.65-.405-.977-1.092-1.034l-.58-.051c-.39-.037-.506-.203-.506-.42 0-.275.224-.47.665-.47.347 0 .673.072.905.267l.463-.47c-.34-.297-.81-.413-1.36-.413-.768 0-1.383.406-1.383 1.122 0 .644.399.955 1.086 1.013l.586.05c.355.03.492.189.492.435 0 .347-.355.506-.803.506-.362 0-.76-.079-1.057-.383l-.484.485c.434.427.94.528 1.54.528.877 0 1.528-.398 1.528-1.165m3.552.644l-.506-.485c-.232.253-.413.347-.702.347a.827 .827 0 0 1 -.68 -.325c-.16-.203-.217-.47-.217-.897 0-.427.058-.687.217-.89a.826 .826 0 0 1 .68 -.326c.29 0 .47.094.702.347l.506-.492c-.347-.369-.702-.514-1.208-.514-.825 0-1.635.5-1.635 1.875 0 1.374.81 1.881 1.635 1.881.506 0 .861-.152 1.208-.521m3.814.478v-2.367c0-.795-.456-1.346-1.274-1.346-.362 0-.694.138-.948.413v-1.853h-.738v5.153h.738v-2.25c0-.55.333-.804.746-.804.412 0 .738.246.738.803v2.25h.738m4.074.001v-3.67h-.738v2.237c0 .565-.348.817-.76.817-.413 0-.738-.246-.738-.817v-2.236h-.738v2.344c0 .413.087.76.369 1.035.217.21.528.333.904.333.37 0 .724-.138.978-.412v.369h.723m2.612 0v-.63h-.326c-.296 0-.398-.145-.398-.427v-4.096h-.738v4.14c0 .542.304 1.013 1.01 1.013h.456m3.552-1.62v-.327c0-1.042-.572-1.766-1.556-1.766-.94 0-1.556.688-1.556 1.875 0 1.396.731 1.881 1.65 1.881.644 0 .999-.195 1.375-.572l-.47-.441c-.26.26-.478.376-.89.376-.601 0-.934-.398-.934-1.027h2.38zm-.731-.515h-1.65c.007-.224.022-.333.094-.5.116-.274.384-.463.731-.463s.608.189.724.464c.072.166.094.275.101.499"/><path fill="#2f2f2f" d="M10.636 45.02c-1.92 0-3.754.75-5.214 2.252v-9.969H0V67h5.422V53.736c0-2.836 1.793-3.837 3.503-3.837 1.71 0 3.546.96 3.546 3.837V67h5.422V52.944c0-4.588-2.503-7.925-7.257-7.925M77.242 46.938c-1.21-1.21-3.17-1.919-5.338-1.919-2.712 0-4.672.834-6.507 2.753-1.376-1.877-3.337-2.753-5.756-2.753-2.002 0-4.004.793-5.422 2.253V45.27h-5.297V67h5.423V53.86c0-2.961 1.918-3.962 3.628-3.962 1.71 0 3.587 1 3.587 3.962V67h5.422V53.736c0-2.836 1.96-3.837 3.629-3.837 1.71 0 3.586 1 3.586 3.962V67h5.422V53.11c0-2.377-.625-4.421-2.377-6.172M28.57 45.895v-2.377c0-1.251.583-1.96 1.876-1.96h2.127V36.97h-3.086c-4.421 0-6.34 3.128-6.34 6.214v2.711h-2.252v4.13h2.252v16.974h5.422V50.024h7.424v10.76c0 3.087 1.877 6.215 6.298 6.215h2.961v-4.587h-1.96c-1.293 0-1.877-.71-1.877-1.96V50.023h3.837v-4.129h-3.837v-6.423h-5.422v6.423H28.57"/><g transform="translate(36.583)"><path fill="#db3353" d="M37.568 2.11c-.199-1.429-.806-.662-1.027-.31L28.31 14.9c-.04.064-.983 1.6.031 3.136 0 0 13.807 20.888 13.831 20.927.025.04.216.305.216.305.246.318.367.425.33-.082 0 0-.03-.337-.04-.413-.093-.707-5.109-36.65-5.109-36.65V2.11" mask="url(#1)"/><path fill="#9a2b46" d="m35.13.605c.63-.44.93-.397.451.381l-8.04 12.836c-1 1.611-2.797 2.283-2.815 2.289 0 0-23.945 8.801-24.25 8.906-.304.105-.718.215-.063-.23l34.712-24.18" mask="url(#1)"/></g><path fill="#55172b" d="m77.914 39.984c.646.993.002 1.071-.616.863l-40.04-13.56c-.846-.294-.959-.66-.113-.987l23.816-8.75c.003-.001.36-.13.838-.13.558 0 1.34.18 1.899 1.034l14.213 21.53"/></g></svg>