<?xml version="1.0" encoding="UTF-8"?><svg id="Ebene_1" xmlns="http://www.w3.org/2000/svg" viewBox="0 0 300 300"><defs><style>.cls-1{fill:#320064;}</style></defs><path class="cls-1" d="M187.08,99.36c-5.25-20.21-12.44-27.09-19.43-25.96h0c-7.94,1.39-13.01,17.34-18.9,35.8-8.81,27.66-19.59,61.48-46.97,75.88,6.18,4.51,17.11,16.64,24.1,43.64,0,0,13.63,1,34.25-25.94,20.62-26.94,33.14-31.81,50.88-12.64,12.3,13.3,16.96,15.3,16.96,15.3,0,0-22.95-45.23-40.9-106.08Z"/><path class="cls-1" d="M144,107.68c1.5-4.7,2.93-9.18,4.36-13.32-17.15,22.36-36.03,16.06-46.91,44.24-3.82,1.83-50.71,20.62-50.71,20.62l36.91,26.94s2.13-1.64,5.03-2.53c30.61-11,42.08-46.97,51.31-75.95Z"/></svg>