<?xml version="1.0" encoding="utf-8"?>
<!-- Generator: Adobe Illustrator 26.5.0, SVG Export Plug-In . SVG Version: 6.00 Build 0)  -->
<svg version="1.1" id="_x30_2" xmlns="http://www.w3.org/2000/svg" xmlns:xlink="http://www.w3.org/1999/xlink" x="0px" y="0px"
	 viewBox="0 0 300 300" style="enable-background:new 0 0 300 300;" xml:space="preserve">
<style type="text/css">
	.st0{fill:#F0FADC;}
</style>
<g>
	<g>
		<path class="st0" d="M45,102.3h23.5l0.1-0.9H45.2L45,102.3z M41,121.4h24.4l0.2-0.9H41.2L41,121.4z M95.6,67.8h1l1.8-15.3h-1
			L95.6,67.8z M104.9,242.8h1.4l2-28.8h-1.4L104.9,242.8z M74.7,242.8h1.4l3.4-28.8h-1.4L74.7,242.8z M77.3,52.5h-1l-2.5,15H52.5
			l-0.2,0.8h21.9l0.1-0.4h0.5L77.3,52.5z M162.2,67.8l-0.4-15.3h-1l0.3,15.3H162.2z M140.7,52.5h-1l-0.4,15.3h1L140.7,52.5z
			 M184.1,67.8L183,52.5h-1l1.1,15.3H184.1z M26.7,188.3h27.6l0.2-1.2H27L26.7,188.3z M31.9,164.1h26.4l0.2-1.1H32.1L31.9,164.1z
			 M119.6,52.5h-1l-1.1,15.3h1L119.6,52.5z M36.6,141.9H62l0.2-1H36.8L36.6,141.9z M48.8,84.7h22.7l0.1-0.8H49L48.8,84.7z
			 M260.4,120.4h-24.4l0.2,0.9h24.4L260.4,120.4z M252.6,83.9H230l0.1,0.8h22.7L252.6,83.9z M256.4,101.5h-23.5l0.1,0.9h23.5
			L256.4,101.5z M264.8,140.9h-25.3l0.2,1H265L264.8,140.9z M274.6,187.1h-27.5l0.2,1.2h27.6L274.6,187.1z M135,242.8h1.4l0.6-28.8
			h-1.4L135,242.8z M269.5,163h-26.4l0.2,1.1h26.4L269.5,163z M150.1,90.1L150.1,90.1c-24.7,0-50.1,4.2-50.1,11.1
			c0,2.2,2.6,4.1,6.9,5.8c18.5,8.2,27.6,21.8,32.5,48.5c5.4,29.7,8.2,35.8,10.8,35.8c2.5,0,5.3-6.1,10.8-35.8
			c4.9-26.7,14-40.3,32.5-48.5c4.3-1.6,6.9-3.5,6.9-5.8C200.2,94.3,174.8,90.1,150.1,90.1z M159.9,155.3c-1.6,8.6-6.4,35-9.8,35
			c-3.4,0-8.2-26.3-9.8-35c-4.5-24.4-12.5-38-27.8-46.6c9.7,2.4,23.8,3.7,37.6,3.7c13.8,0,27.9-1.3,37.6-3.7
			C172.3,117.2,164.4,130.8,159.9,155.3z M150.1,111.4c-29.4,0-49.1-5.2-49.1-10.1c0-4.9,19.8-10.1,49.1-10.1
			c29.4,0,49.1,5.2,49.1,10.1C199.2,106.1,179.5,111.4,150.1,111.4z M249.1,67.5h-21.3l-2.5-15h-1l2.5,15.3h0.5l0.1,0.4h21.9
			L249.1,67.5z M164.5,214l0.6,28.8h1.4l-0.7-28.8H164.5z M193.3,214l2,28.8h1.4l-2.1-28.8H193.3z M222.1,214l3.4,28.8h1.4
			l-3.4-28.8H222.1z M203.2,52.5l1.8,15.3h1l-1.8-15.3H203.2z"/>
	</g>
</g>
<polygon class="st0" points="280.5,214.7 280.2,213.4 250.8,213.4 250.8,213.4 255.6,242.8 257,242.8 252.3,214.7 "/>
<g>
	<polygon class="st0" points="21.4,213.4 21.1,214.7 49.3,214.7 44.6,242.8 46,242.8 50.8,213.4 	"/>
</g>
</svg>
