<?xml version="1.0" encoding="UTF-8"?><svg id="Ebene_1" xmlns="http://www.w3.org/2000/svg" viewBox="0 0 300 300"><defs><style>.cls-1{fill:#320064;}</style></defs><path class="cls-1" d="M231.1,52h-14.6V29.2h-1v52.1h-13.7V29.2h-1V95.9h-14.6v14.7h-14.7v15.6h29.3v57.6h-14.6v29.3h-29.3v30.1h43.9v26h1v-26h13.7v26h1v-26h29.2V52h-14.6Zm-45,73.2h-13.6v-13.6h13.6v13.6Zm45-72.2h13.6v13.6h-13.6v-13.6Zm-1,42.9h-13.6v-13.6h13.6v13.6Zm0,73.2h-13.6v-13.6h13.6v13.6Zm0,14.7h-13.6v-13.7h13.6v13.7Zm-14.7-73.3h-13.6v-13.6h13.6v13.6Zm-13.6,1.1h13.6v13.6h-13.6v-13.6Zm0,73.2h13.6v13.6h-13.6v-13.6Zm13.6,14.6v13.6h-13.6v-13.6h13.6Zm-28.2,28.2v-13.5h13.6v13.5h-13.6Zm14.6,0v-13.5h13.6v13.5h-13.6Zm14.7,0v-13.5h13.6v13.5h-13.6Zm13.6-14.6h-13.6v-13.6h13.6v13.6Zm-13.6-14.6v-13.6h13.6v13.6h-13.6Zm0-43.9v-13.6h13.6v13.6h-13.6Zm13.6-14.7h-13.6v-13.6h13.6v13.6Zm-13.6-14.6v-13.6h13.6v13.6h-13.6Zm13.6-14.7h-13.6v-13.6h13.6v13.6Zm-13.6-29.2v-13.6h13.6v13.6h-13.6Zm13.6-28.3v13.6h-13.6v-13.6h13.6Zm-28.3,29.3h13.6v13.6h-13.6v-13.6Zm-14.6,14.6h13.6v13.6h-13.6v-13.6Zm0,28.3v-13.6h13.6v13.6h-13.6Zm28.2,1v13.6h-13.6v-13.6h13.6Zm-13.6,14.6h13.7v13.7h-13.7v-13.7Zm0,14.7h13.6v13.6h-13.6v-13.6Zm13.6,14.6v13.6h-13.6v-13.6h13.6Zm-28.2,14.7h13.6v13.6h-13.6v-13.6Zm13.6,14.6v13.6h-13.6v-13.6h13.6Zm-28.3,14.7h13.6v13.5h-13.6v-13.5Zm-14.6,0h13.6v13.5h-13.6v-13.5Zm13.6,28.1h-13.6v-13.5h13.6v13.5Zm1,0v-13.5h13.6v13.5h-13.6Zm14.7,0v-13.5h13.6v13.5h-13.6Zm14.6,0v-13.5h13.6v13.5h-13.6Zm28.3,0h-13.6v-13.5h13.6v13.5Zm14.6,0h-13.6v-13.5h13.6v13.5Zm-13.6-14.6v-13.5h13.6v13.5h-13.6Zm13.6-14.6h-13.6v-13.6h13.6v13.6Zm-13.6-14.6v-13.6h13.6v13.6h-13.6Zm13.6-14.7h-13.6v-13.6h13.6v13.6Zm0-14.6h-13.6v-13.6h13.6v13.6Zm-13.6-14.6v-13.6h13.6v13.6h-13.6Zm13.6-14.7h-13.6v-13.6h13.6v13.6Zm-13.6-14.6v-13.6h13.6v13.6h-13.6Zm13.6-14.7h-13.6v-13.6h13.6v13.6Zm0-14.6h-13.6v-13.6h13.6v13.6Zm-13.6-14.6v-13.6h13.6v13.6h-13.6Z"/><path class="cls-1" d="M102.1,29.2h-1v125.3h-13.7V29.2h-1v22.8h-29.2V243.3h29.2v25.9h1v-25.9h13.7v25.9h1v-25.9h14.6v-74.2h-14.6V29.2Zm-29.3,140.9h13.6v13.6h-13.6v-13.6Zm0-14.6h13.6v13.6h-13.6v-13.6Zm14.6,58.5h13.6v13.6h-13.6v-13.6Zm13.6-15.7h-13.6v-13.6h13.6v13.6Zm-13.6,1.1h13.6v13.6h-13.6v-13.6Zm13.6-15.7h-13.6v-13.6h13.6v13.6Zm-14.6,1v13.6h-13.6v-13.6h13.6Zm-13.6,14.7h13.6v13.6h-13.6v-13.6Zm13.6,14.6v13.6h-13.6v-13.6h13.6Zm14.6-58.5v13.6h-13.6v-13.6h13.6Zm-14.6-1.1h-13.6v-13.6h13.6v13.6Zm-13.6-14.6v-13.6h13.6v13.6h-13.6Zm13.6-14.6h-13.6v-13.7h13.6v13.7Zm0-14.7h-13.6v-13.6h13.6v13.6Zm-13.6-14.6v-13.6h13.6v13.6h-13.6Zm13.6-14.6h-13.6v-13.7h13.6v13.7Zm-13.6-28.3h13.6v13.6h-13.6v-13.6Zm-14.6,0h13.6v13.6h-13.6v-13.6Zm13.6,14.6v13.6h-13.6v-13.6h13.6Zm-13.6,14.7h13.6v13.6h-13.6v-13.6Zm0,14.6h13.6v13.6h-13.6v-13.6Zm13.6,14.6v13.6h-13.6v-13.6h13.6Zm-13.6,14.7h13.6v13.6h-13.6v-13.6Zm13.6,14.6v13.6h-13.6v-13.6h13.6Zm-13.6,14.7h13.6v13.6h-13.6v-13.6Zm0,14.6h13.6v13.6h-13.6v-13.6Zm13.6,14.6v13.6h-13.6v-13.6h13.6Zm-13.6,14.7h13.6v13.6h-13.6v-13.6Zm13.6,14.6v13.6h-13.6v-13.6h13.6Zm0,28.3h-13.6v-13.6h13.6v13.6Zm1,0v-13.6h13.6v13.6h-13.6Zm28.2,0h-13.6v-13.6h13.6v13.6Zm14.7,0h-13.6v-13.6h13.6v13.6Zm0-14.7h-13.6v-13.6h13.6v13.6Zm-13.6-14.6v-13.6h13.6v13.6h-13.6Zm13.6-14.7h-13.6v-13.6h13.6v13.6Zm0-28.2v13.6h-13.6v-13.6h13.6Z"/></svg>