<?xml version="1.0" encoding="UTF-8" standalone="no"?>
<svg
   xmlns:dc="http://purl.org/dc/elements/1.1/"
   xmlns:cc="http://creativecommons.org/ns#"
   xmlns:rdf="http://www.w3.org/1999/02/22-rdf-syntax-ns#"
   xmlns:svg="http://www.w3.org/2000/svg"
   xmlns="http://www.w3.org/2000/svg"
   xmlns:sodipodi="http://sodipodi.sourceforge.net/DTD/sodipodi-0.dtd"
   xmlns:inkscape="http://www.inkscape.org/namespaces/inkscape"
   id="Ebene_1"
   viewBox="0 0 300 300"
   version="1.1"
   sodipodi:docname="picto_ScientificComputation.svg"
   inkscape:version="1.0.2 (e86c870879, 2021-01-15)"
   inkscape:export-filename="/media/datatools/WD0SSD10/datatools/Documents/operation/website/v0.3/img/picto_ScientificComputation_dark.png"
   inkscape:export-xdpi="298.15543"
   inkscape:export-ydpi="298.15543">
  <metadata
     id="metadata67">
    <rdf:RDF>
      <cc:Work
         rdf:about="">
        <dc:format>image/svg+xml</dc:format>
        <dc:type
           rdf:resource="http://purl.org/dc/dcmitype/StillImage" />
        <dc:title></dc:title>
      </cc:Work>
    </rdf:RDF>
  </metadata>
  <sodipodi:namedview
     pagecolor="#ffffff"
     bordercolor="#666666"
     borderopacity="1"
     objecttolerance="10"
     gridtolerance="10"
     guidetolerance="10"
     inkscape:pageopacity="0"
     inkscape:pageshadow="2"
     inkscape:window-width="1920"
     inkscape:window-height="1016"
     id="namedview65"
     showgrid="false"
     inkscape:zoom="2.6466667"
     inkscape:cx="150"
     inkscape:cy="150"
     inkscape:window-x="0"
     inkscape:window-y="0"
     inkscape:window-maximized="1"
     inkscape:current-layer="Ebene_1"
     inkscape:document-rotation="0" />
  <defs
     id="defs4">
    <style
       id="style2">.cls-1{fill:#320064;}</style>
  </defs>
  <g
     id="g888">
    <polygon
       class="cls-1"
       points="224.8 221.66 224.3 221.66 224.3 242.8 225.3 242.8 225.3 222.16 245.95 222.16 245.95 221.16 224.8 221.16 224.8 221.66"
       id="polygon6"
       style="fill:#320064;fill-opacity:1" />
    <rect
       class="cls-1"
       x="224.8"
       y="200.01"
       width="21.14"
       height="1"
       id="rect8"
       style="fill:#320064;fill-opacity:1" />
    <rect
       class="cls-1"
       x="224.8"
       y="178.87"
       width="21.14"
       height="1"
       id="rect10"
       style="fill:#320064;fill-opacity:1" />
    <rect
       class="cls-1"
       x="224.8"
       y="157.73"
       width="21.14"
       height="1"
       id="rect12"
       style="fill:#320064;fill-opacity:1" />
    <rect
       class="cls-1"
       x="224.8"
       y="136.58"
       width="21.14"
       height="1"
       id="rect14"
       style="fill:#320064;fill-opacity:1" />
    <rect
       class="cls-1"
       x="224.8"
       y="115.44"
       width="21.14"
       height="1"
       id="rect16"
       style="fill:#320064;fill-opacity:1" />
    <rect
       class="cls-1"
       x="224.8"
       y="94.3"
       width="21.14"
       height="1"
       id="rect18"
       style="fill:#320064;fill-opacity:1" />
    <polygon
       class="cls-1"
       points="225.3 73.15 225.3 52.51 224.3 52.51 224.3 73.65 224.8 73.65 224.8 74.15 245.95 74.15 245.95 73.15 225.3 73.15"
       id="polygon20"
       style="fill:#320064;fill-opacity:1" />
    <polygon
       class="cls-1"
       points="76.8 221.16 55.66 221.16 55.66 222.16 76.3 222.16 76.3 242.8 77.3 242.8 77.3 221.66 76.8 221.66 76.8 221.16"
       id="polygon22"
       style="fill:#320064;fill-opacity:1" />
    <rect
       class="cls-1"
       x="55.66"
       y="200.01"
       width="21.14"
       height="1"
       id="rect24"
       style="fill:#320064;fill-opacity:1" />
    <rect
       class="cls-1"
       x="55.66"
       y="178.87"
       width="21.14"
       height="1"
       id="rect26"
       style="fill:#320064;fill-opacity:1" />
    <rect
       class="cls-1"
       x="55.66"
       y="157.73"
       width="21.14"
       height="1"
       id="rect28"
       style="fill:#320064;fill-opacity:1" />
    <rect
       class="cls-1"
       x="55.66"
       y="136.58"
       width="21.14"
       height="1"
       id="rect30"
       style="fill:#320064;fill-opacity:1" />
    <rect
       class="cls-1"
       x="55.66"
       y="115.44"
       width="21.14"
       height="1"
       id="rect32"
       style="fill:#320064;fill-opacity:1" />
    <rect
       class="cls-1"
       x="55.66"
       y="94.3"
       width="21.14"
       height="1"
       id="rect34"
       style="fill:#320064;fill-opacity:1" />
    <rect
       class="cls-1"
       x="203.16"
       y="221.66"
       width="1"
       height="21.14"
       id="rect36"
       style="fill:#320064;fill-opacity:1" />
    <rect
       class="cls-1"
       x="182.02"
       y="221.66"
       width="1"
       height="21.14"
       id="rect38"
       style="fill:#320064;fill-opacity:1" />
    <rect
       class="cls-1"
       x="160.87"
       y="221.66"
       width="1"
       height="21.14"
       id="rect40"
       style="fill:#320064;fill-opacity:1" />
    <rect
       class="cls-1"
       x="139.73"
       y="221.66"
       width="1"
       height="21.14"
       id="rect42"
       style="fill:#320064;fill-opacity:1" />
    <rect
       class="cls-1"
       x="118.59"
       y="221.66"
       width="1"
       height="21.14"
       id="rect44"
       style="fill:#320064;fill-opacity:1" />
    <rect
       class="cls-1"
       x="97.44"
       y="221.66"
       width="1"
       height="21.14"
       id="rect46"
       style="fill:#320064;fill-opacity:1" />
    <polygon
       class="cls-1"
       points="76.3 73.15 55.66 73.15 55.66 74.15 76.8 74.15 76.8 73.65 77.3 73.65 77.3 52.51 76.3 52.51 76.3 73.15"
       id="polygon48"
       style="fill:#320064;fill-opacity:1" />
    <rect
       class="cls-1"
       x="203.16"
       y="52.51"
       width="1"
       height="21.14"
       id="rect50"
       style="fill:#320064;fill-opacity:1" />
    <rect
       class="cls-1"
       x="182.02"
       y="52.51"
       width="1"
       height="21.14"
       id="rect52"
       style="fill:#320064;fill-opacity:1" />
    <rect
       class="cls-1"
       x="160.87"
       y="52.51"
       width="1"
       height="21.14"
       id="rect54"
       style="fill:#320064;fill-opacity:1" />
    <rect
       class="cls-1"
       x="139.73"
       y="52.51"
       width="1"
       height="21.14"
       id="rect56"
       style="fill:#320064;fill-opacity:1" />
    <rect
       class="cls-1"
       x="118.59"
       y="52.51"
       width="1"
       height="21.14"
       id="rect58"
       style="fill:#320064;fill-opacity:1" />
    <rect
       class="cls-1"
       x="97.44"
       y="52.51"
       width="1"
       height="21.14"
       id="rect60"
       style="fill:#320064;fill-opacity:1" />
    <path
       class="cls-1"
       d="M150.1,100.09c-24.65,0-50.14,4.17-50.14,11.14,0,2.21,2.58,4.14,6.87,5.75h0c18.51,8.2,27.63,21.79,32.5,48.47,5.43,29.69,8.23,35.77,10.77,35.77s5.34-6.08,10.77-35.77c4.88-26.69,13.99-40.27,32.5-48.46h0c4.3-1.61,6.87-3.54,6.87-5.75,0-6.97-25.49-11.14-50.14-11.14Zm9.78,65.18c-1.58,8.64-6.39,34.95-9.78,34.95s-8.2-26.31-9.78-34.95c-4.46-24.42-12.46-38.04-27.84-46.59,9.71,2.38,23.8,3.69,37.62,3.69s27.91-1.31,37.62-3.69c-15.38,8.56-23.37,22.17-27.84,46.59Zm-9.78-43.9c-29.39,0-49.14-5.24-49.14-10.14s19.75-10.14,49.14-10.14,49.14,5.24,49.14,10.14-19.75,10.14-49.14,10.14Z"
       id="path62"
       style="fill:#320064;fill-opacity:1" />
  </g>
</svg>
