<?xml version="1.0" encoding="UTF-8" standalone="no"?>
<svg
   xmlns:dc="http://purl.org/dc/elements/1.1/"
   xmlns:cc="http://creativecommons.org/ns#"
   xmlns:rdf="http://www.w3.org/1999/02/22-rdf-syntax-ns#"
   xmlns:svg="http://www.w3.org/2000/svg"
   xmlns="http://www.w3.org/2000/svg"
   xmlns:sodipodi="http://sodipodi.sourceforge.net/DTD/sodipodi-0.dtd"
   xmlns:inkscape="http://www.inkscape.org/namespaces/inkscape"
   id="Ebene_1"
   viewBox="0 0 300 300"
   version="1.1"
   sodipodi:docname="picto_MachineLearning.svg"
   inkscape:version="1.0.2 (e86c870879, 2021-01-15)"
   inkscape:export-filename="/media/datatools/WD0SSD10/datatools/Documents/operation/website/v0.3/img/picto_MachineLearning_dark.png"
   inkscape:export-xdpi="300"
   inkscape:export-ydpi="300">
  <metadata
     id="metadata39">
    <rdf:RDF>
      <cc:Work
         rdf:about="">
        <dc:format>image/svg+xml</dc:format>
        <dc:type
           rdf:resource="http://purl.org/dc/dcmitype/StillImage" />
        <dc:title></dc:title>
      </cc:Work>
    </rdf:RDF>
  </metadata>
  <sodipodi:namedview
     pagecolor="#ffffff"
     bordercolor="#666666"
     borderopacity="1"
     objecttolerance="10"
     gridtolerance="10"
     guidetolerance="10"
     inkscape:pageopacity="0"
     inkscape:pageshadow="2"
     inkscape:window-width="1920"
     inkscape:window-height="1016"
     id="namedview37"
     showgrid="false"
     inkscape:zoom="2.6466667"
     inkscape:cx="150"
     inkscape:cy="150"
     inkscape:window-x="0"
     inkscape:window-y="0"
     inkscape:window-maximized="1"
     inkscape:current-layer="Ebene_1"
     inkscape:document-rotation="0" />
  <defs
     id="defs4">
    <style
       id="style2">.cls-1{fill:#320064;}</style>
  </defs>
  <g
     id="g876">
    <path
       class="cls-1"
       d="M 55.2,52 V 243.3 H 246.5 V 52 Z M 245.5,73.2 H 225.3 V 53 h 20.2 z m -104.7,84.5 v -20.1 h 20.1 v 20.1 z m 20.1,1 v 20.2 h -20.1 v -20.2 z m -21.1,-1 h -20.2 v -20.1 h 20.2 z m 1,-21.1 v -20.2 h 20.1 v 20.2 z m 21.1,1 h 20.2 v 20.1 h -20.2 z m 0,-1 v -20.2 h 20.2 v 20.2 z m 0,-21.2 V 95.3 h 20.2 v 20.1 z m -1,0 H 140.8 V 95.3 h 20.1 z m -21.1,0 H 119.6 V 95.3 h 20.2 z m 0,1 v 20.2 h -20.2 v -20.2 z m -21.2,20.2 H 98.5 v -20.2 h 20.1 z m 0,1 v 20.1 H 98.5 v -20.1 z m 0,21.1 v 20.2 H 98.5 v -20.2 z m 1,0 h 20.2 v 20.2 h -20.2 z m 20.2,21.2 V 200 h -20.2 v -20.1 z m 1,0 h 20.1 V 200 h -20.1 z m 21.1,0 h 20.2 V 200 h -20.2 z m 0,-1 v -20.2 h 20.2 v 20.2 z m 21.2,-20.2 h 20.1 v 20.2 h -20.1 z m 0,-1 v -20.1 h 20.1 v 20.1 z m 0,-21.1 v -20.2 h 20.1 v 20.2 z m 0,-21.2 V 95.3 h 20.1 v 20.1 z m 0,-21.1 V 74.2 h 20.1 v 20.1 z m -1,0 H 161.9 V 74.2 h 20.2 z m -21.2,0 H 140.8 V 74.2 h 20.1 z m -21.1,0 H 119.6 V 74.2 h 20.2 z m -21.2,0 H 98.5 V 74.2 h 20.1 z m 0,1 v 20.1 H 98.5 V 95.3 Z M 97.5,115.4 H 77.3 V 95.3 h 20.2 z m 0,1 v 20.2 H 77.3 v -20.2 z m 0,21.2 v 20.1 H 77.3 v -20.1 z m 0,21.1 v 20.2 H 77.3 v -20.2 z m 0,21.2 V 200 H 77.3 v -20.1 z m 1,0 h 20.1 V 200 H 98.5 Z m 20.1,21.1 v 20.2 H 98.5 V 201 Z m 1,0 h 20.2 v 20.2 h -20.2 z m 21.2,0 h 20.1 v 20.2 h -20.1 z m 21.1,0 h 20.2 v 20.2 h -20.2 z m 21.2,0 h 20.1 v 20.2 h -20.1 z m 0,-1 v -20.1 h 20.1 V 200 Z m 21.1,-20.1 h 20.1 V 200 h -20.1 z m 0,-1 v -20.2 h 20.1 v 20.2 z m 0,-21.2 v -20.1 h 20.1 v 20.1 z m 0,-21.1 v -20.2 h 20.1 v 20.2 z m 0,-21.2 V 95.3 h 20.1 v 20.1 z m 0,-21.1 V 74.2 h 20.1 v 20.1 z m 0,-21.1 V 53 h 20.1 v 20.2 z m -1,0 H 183.1 V 53 h 20.1 z m -21.1,0 H 161.9 V 53 h 20.2 z m -21.2,0 H 140.8 V 53 h 20.1 z m -21.1,0 H 119.6 V 53 h 20.2 z m -21.2,0 H 98.5 V 53 h 20.1 z m -21.1,0 H 77.3 V 53 h 20.2 z m 0,1 V 94.3 H 77.3 V 74.2 Z M 76.3,94.3 H 56.2 V 74.2 h 20.1 z m 0,1 v 20.1 H 56.2 V 95.3 Z m 0,21.1 v 20.2 H 56.2 v -20.2 z m 0,21.2 v 20.1 H 56.2 v -20.1 z m 0,21.1 v 20.2 H 56.2 v -20.2 z m 0,21.2 V 200 H 56.2 v -20.1 z m 0,21.1 v 20.2 H 56.2 V 201 Z m 1,0 h 20.2 v 20.2 H 77.3 Z m 20.2,21.2 v 20.1 H 77.3 v -20.1 z m 1,0 h 20.1 v 20.1 H 98.5 Z m 21.1,0 h 20.2 v 20.1 h -20.2 z m 21.2,0 h 20.1 v 20.1 h -20.1 z m 21.1,0 h 20.2 v 20.1 h -20.2 z m 21.2,0 h 20.1 v 20.1 h -20.1 z m 21.1,0 h 20.1 v 20.1 h -20.1 z m 0,-1 V 201 h 20.1 v 20.2 z M 225.3,201 h 20.2 v 20.2 h -20.2 z m 0,-1 v -20.1 h 20.2 V 200 Z m 0,-21.1 v -20.2 h 20.2 v 20.2 z m 0,-21.2 v -20.1 h 20.2 v 20.1 z m 0,-21.1 v -20.2 h 20.2 v 20.2 z m 0,-21.2 V 95.3 h 20.2 v 20.1 z m 0,-21.1 V 74.2 h 20.2 V 94.3 Z M 76.3,53 V 73.2 H 56.2 V 53 Z M 56.2,222.2 h 20.1 v 20.1 H 56.2 Z m 169.1,20.1 v -20.1 h 20.2 v 20.1 z"
       id="path6"
       style="fill:#320064;fill-opacity:1" />
    <path
       class="cls-1"
       d="m 87.1,87.1 c 1.71,0 3.1,-1.39 3.1,-3.1 0,-1.71 -1.39,-3.1 -3.1,-3.1 -1.71,0 -3.1,1.39 -3.1,3.1 0,1.71 1.39,3.1 3.1,3.1 z"
       id="path8"
       style="fill:#320064;fill-opacity:1" />
    <path
       class="cls-1"
       d="m 108.6,108.2 c 1.71,0 3.1,-1.39 3.1,-3.1 0,-1.71 -1.39,-3.1 -3.1,-3.1 -1.71,0 -3.1,1.39 -3.1,3.1 0,1.71 1.39,3.1 3.1,3.1 z"
       id="path10"
       style="fill:#320064;fill-opacity:1" />
    <path
       class="cls-1"
       d="m 108.6,129.5 c 1.71,0 3.1,-1.39 3.1,-3.1 0,-1.71 -1.39,-3.1 -3.1,-3.1 -1.71,0 -3.1,1.39 -3.1,3.1 0,1.71 1.39,3.1 3.1,3.1 z"
       id="path12"
       style="fill:#320064;fill-opacity:1" />
    <path
       class="cls-1"
       d="m 129.6,108.2 c 1.71,0 3.1,-1.39 3.1,-3.1 0,-1.71 -1.39,-3.1 -3.1,-3.1 -1.71,0 -3.1,1.39 -3.1,3.1 0,1.71 1.39,3.1 3.1,3.1 z"
       id="path14"
       style="fill:#320064;fill-opacity:1" />
    <path
       class="cls-1"
       d="m 129.6,129.5 c 1.71,0 3.1,-1.39 3.1,-3.1 0,-1.71 -1.39,-3.1 -3.1,-3.1 -1.71,0 -3.1,1.39 -3.1,3.1 0,1.71 1.39,3.1 3.1,3.1 z"
       id="path16"
       style="fill:#320064;fill-opacity:1" />
    <path
       class="cls-1"
       d="m 129.6,165.9 c -1.71,0 -3.1,1.39 -3.1,3.1 0,1.71 1.39,3.1 3.1,3.1 1.71,0 3.1,-1.39 3.1,-3.1 0,-1.71 -1.39,-3.1 -3.1,-3.1 z"
       id="path18"
       style="fill:#320064;fill-opacity:1" />
    <path
       class="cls-1"
       d="m 129.6,193.4 c 1.71,0 3.1,-1.39 3.1,-3.1 0,-1.71 -1.39,-3.1 -3.1,-3.1 -1.71,0 -3.1,1.39 -3.1,3.1 0,1.71 1.39,3.1 3.1,3.1 z"
       id="path20"
       style="fill:#320064;fill-opacity:1" />
    <path
       class="cls-1"
       d="m 87.9,108.2 c 1.71,0 3.1,-1.39 3.1,-3.1 0,-1.71 -1.39,-3.1 -3.1,-3.1 -1.71,0 -3.1,1.39 -3.1,3.1 0,1.71 1.39,3.1 3.1,3.1 z"
       id="path22"
       style="fill:#320064;fill-opacity:1" />
    <path
       class="cls-1"
       d="m 193.1,145.5 c -1.71,0 -3.1,1.39 -3.1,3.1 0,1.71 1.39,3.1 3.1,3.1 1.71,0 3.1,-1.39 3.1,-3.1 0,-1.71 -1.39,-3.1 -3.1,-3.1 z"
       id="path24"
       style="fill:#320064;fill-opacity:1" />
    <path
       class="cls-1"
       d="m 214.1,145.5 c -1.71,0 -3.1,1.39 -3.1,3.1 0,1.71 1.39,3.1 3.1,3.1 1.71,0 3.1,-1.39 3.1,-3.1 0,-1.71 -1.39,-3.1 -3.1,-3.1 z"
       id="path26"
       style="fill:#320064;fill-opacity:1" />
    <path
       class="cls-1"
       d="m 172.4,145.5 c -1.71,0 -3.1,1.39 -3.1,3.1 0,1.71 1.39,3.1 3.1,3.1 1.71,0 3.1,-1.39 3.1,-3.1 0,-1.71 -1.39,-3.1 -3.1,-3.1 z"
       id="path28"
       style="fill:#320064;fill-opacity:1" />
    <path
       class="cls-1"
       d="m 214.4,102.4 c -1.71,0 -3.1,1.39 -3.1,3.1 0,1.71 1.39,3.1 3.1,3.1 1.71,0 3.1,-1.39 3.1,-3.1 0,-1.71 -1.39,-3.1 -3.1,-3.1 z"
       id="path30"
       style="fill:#320064;fill-opacity:1" />
    <path
       class="cls-1"
       d="m 235.7,81.5 c -1.71,0 -3.1,1.39 -3.1,3.1 0,1.71 1.39,3.1 3.1,3.1 1.71,0 3.1,-1.39 3.1,-3.1 0,-1.71 -1.39,-3.1 -3.1,-3.1 z"
       id="path32"
       style="fill:#320064;fill-opacity:1" />
    <path
       class="cls-1"
       d="m 193.7,123.4 c -1.71,0 -3.1,1.39 -3.1,3.1 0,1.71 1.39,3.1 3.1,3.1 1.71,0 3.1,-1.39 3.1,-3.1 0,-1.71 -1.39,-3.1 -3.1,-3.1 z"
       id="path34"
       style="fill:#320064;fill-opacity:1" />
  </g>
</svg>
