<?xml version="1.0" encoding="UTF-8"?><svg id="Ebene_1" xmlns="http://www.w3.org/2000/svg" viewBox="0 0 300 300"><defs><style>.cls-1{fill:#f0fadc;}.cls-2{fill:#320064;}</style></defs><circle class="cls-1" cx="149.2" cy="144.26" r="44.8"/><g><path class="cls-2" d="M168.56,127.07c0-2.51-1.19-4.35-3.37-4.35s-3.38,1.85-3.38,4.35,1.2,4.35,3.38,4.35,3.37-1.86,3.37-4.35Zm-3.37,3.17c-1.38,0-2.07-1.26-2.07-3.17s.7-3.17,2.07-3.17,2.06,1.26,2.06,3.17-.68,3.17-2.06,3.17Z"/><polygon class="cls-2" points="156.7 156.97 157.03 158.1 159.02 157.14 159.02 164.07 160.34 164.07 160.34 155.68 159.24 155.68 156.7 156.97"/><polygon class="cls-2" points="165.6 147.67 165.6 139.28 164.49 139.28 161.96 140.57 162.28 141.7 164.28 140.74 164.28 147.67 165.6 147.67"/><polygon class="cls-2" points="154.19 173.37 154.51 174.5 156.5 173.54 156.5 180.47 157.82 180.47 157.82 172.08 156.72 172.08 154.19 173.37"/><path class="cls-2" d="M165.7,171.92c-2.18,0-3.38,1.85-3.38,4.35s1.2,4.35,3.38,4.35,3.37-1.86,3.37-4.35-1.19-4.35-3.37-4.35Zm0,7.52c-1.38,0-2.07-1.26-2.07-3.17s.7-3.17,2.07-3.17,2.06,1.26,2.06,3.17-.68,3.17-2.06,3.17Z"/><path class="cls-2" d="M165.19,164.23c2.18,0,3.37-1.86,3.37-4.35s-1.19-4.35-3.37-4.35-3.38,1.85-3.38,4.35,1.2,4.35,3.38,4.35Zm0-7.52c1.38,0,2.06,1.26,2.06,3.17s-.68,3.17-2.06,3.17-2.07-1.26-2.07-3.17,.7-3.17,2.07-3.17Z"/><path class="cls-2" d="M164.39,115.03c2.18,0,3.37-1.86,3.37-4.35s-1.19-4.35-3.37-4.35-3.38,1.85-3.38,4.35,1.2,4.35,3.38,4.35Zm0-7.52c1.38,0,2.06,1.26,2.06,3.17s-.68,3.17-2.06,3.17-2.07-1.26-2.07-3.17,.7-3.17,2.07-3.17Z"/><path class="cls-2" d="M183.65,131.43c1.91,0,3.06-1.43,3.32-3.47-.77-1.79-1.67-3.52-2.68-5.17-.2-.04-.41-.07-.63-.07-2.18,0-3.38,1.85-3.38,4.35s1.2,4.35,3.38,4.35Zm0-7.52c1.38,0,2.06,1.26,2.06,3.17s-.68,3.17-2.06,3.17-2.07-1.26-2.07-3.17,.7-3.17,2.07-3.17Z"/><path class="cls-2" d="M128.56,108.68c-.45,.26-.88,.53-1.32,.8v5.39h1.32v-6.19Z"/><path class="cls-2" d="M113.86,123.22c-.21,.35-.41,.7-.61,1.06,.64,.5,.96,1.49,.96,2.79,0,1.91-.68,3.17-2.06,3.17-.58,0-1.04-.24-1.38-.64-.16,.41-.31,.83-.45,1.25,.5,.36,1.1,.58,1.83,.58,2.18,0,3.37-1.86,3.37-4.35,0-1.74-.58-3.14-1.66-3.85Z"/><polygon class="cls-2" points="155.48 164.07 155.48 155.68 154.38 155.68 151.84 156.97 152.17 158.1 154.16 157.14 154.16 164.07 155.48 164.07"/><path class="cls-2" d="M188.84,143.47c0-1.51,.44-2.6,1.31-3-.04-.41-.08-.82-.13-1.23-1.61,.44-2.49,2.09-2.49,4.22s.93,3.9,2.64,4.27c.03-.41,.07-.82,.09-1.23-.94-.35-1.43-1.47-1.43-3.04Z"/><path class="cls-2" d="M112.15,155.52c-.93,0-1.68,.35-2.23,.94,.15,.5,.33,.99,.5,1.48,.33-.77,.91-1.23,1.73-1.23,1.38,0,2.06,1.26,2.06,3.17,0,1.69-.54,2.87-1.62,3.11,.18,.36,.37,.72,.56,1.07,1.53-.49,2.37-2.11,2.37-4.19,0-2.51-1.19-4.35-3.37-4.35Z"/><path class="cls-2" d="M174.66,176.27c0,.09,.01,.17,.02,.26,.46-.36,.91-.73,1.35-1.11,.19-1.42,.86-2.31,2.02-2.31,.15,0,.29,.02,.42,.05,.31-.31,.61-.63,.91-.95-.39-.18-.83-.28-1.33-.28-2.18,0-3.38,1.85-3.38,4.35Z"/><path class="cls-2" d="M122.38,171.92c-1.07,0-1.9,.45-2.47,1.2,.3,.3,.6,.59,.91,.88,.35-.57,.87-.9,1.57-.9,1.38,0,2.06,1.26,2.06,3.17,0,.28-.02,.54-.05,.79,.38,.29,.77,.56,1.16,.84,.13-.5,.2-1.04,.2-1.63,0-2.51-1.19-4.35-3.37-4.35Z"/><path class="cls-2" d="M183.2,147.83c2.18,0,3.37-1.86,3.37-4.35s-1.19-4.35-3.37-4.35-3.38,1.85-3.38,4.35,1.2,4.35,3.38,4.35Zm0-7.52c1.38,0,2.06,1.26,2.06,3.17s-.68,3.17-2.06,3.17-2.07-1.26-2.07-3.17,.7-3.17,2.07-3.17Z"/><polygon class="cls-2" points="170.46 147.67 170.46 139.28 169.35 139.28 166.82 140.57 167.14 141.7 169.14 140.74 169.14 147.67 170.46 147.67"/><path class="cls-2" d="M175.94,131.43c2.18,0,3.37-1.86,3.37-4.35s-1.19-4.35-3.37-4.35-3.38,1.85-3.38,4.35,1.2,4.35,3.38,4.35Zm0-7.52c1.38,0,2.06,1.26,2.06,3.17s-.68,3.17-2.06,3.17-2.07-1.26-2.07-3.17,.7-3.17,2.07-3.17Z"/><path class="cls-2" d="M171.88,109.95c-.44-.29-.87-.57-1.32-.85v5.77h1.32v-4.92Z"/><path class="cls-2" d="M176.73,115.03c.43,0,.81-.09,1.16-.23-.34-.33-.68-.66-1.02-.98-.05,0-.09,.02-.14,.02-1,0-1.63-.66-1.91-1.75-.48-.38-.96-.75-1.45-1.11,.1,2.33,1.27,4.05,3.36,4.05Z"/><polygon class="cls-2" points="175.31 147.67 175.31 139.28 174.21 139.28 171.68 140.57 172 141.7 174 140.74 174 147.67 175.31 147.67"/><path class="cls-2" d="M179.31,159.87c0-2.51-1.19-4.35-3.37-4.35s-3.38,1.85-3.38,4.35,1.2,4.35,3.38,4.35,3.37-1.86,3.37-4.35Zm-5.44,0c0-1.91,.7-3.17,2.07-3.17s2.06,1.26,2.06,3.17-.68,3.17-2.06,3.17-2.07-1.26-2.07-3.17Z"/><path class="cls-2" d="M114.88,143.47c0-2.51-1.19-4.35-3.37-4.35s-3.38,1.85-3.38,4.35,1.2,4.35,3.38,4.35,3.37-1.86,3.37-4.35Zm-5.44,0c0-1.91,.7-3.17,2.07-3.17s2.06,1.26,2.06,3.17-.68,3.17-2.06,3.17-2.07-1.26-2.07-3.17Z"/><path class="cls-2" d="M139.11,143.47c0,2.49,1.2,4.35,3.38,4.35s3.37-1.86,3.37-4.35-1.19-4.35-3.37-4.35-3.38,1.85-3.38,4.35Zm5.44,0c0,1.91-.68,3.17-2.06,3.17s-2.07-1.26-2.07-3.17,.7-3.17,2.07-3.17,2.06,1.26,2.06,3.17Z"/><polygon class="cls-2" points="142.86 107.94 142.86 114.87 144.17 114.87 144.17 106.48 143.07 106.48 140.54 107.77 140.86 108.9 142.86 107.94"/><polygon class="cls-2" points="147.58 131.27 147.58 122.88 146.48 122.88 143.95 124.17 144.27 125.3 146.26 124.34 146.26 131.27 147.58 131.27"/><path class="cls-2" d="M135.75,159.87c0-2.51-1.19-4.35-3.37-4.35s-3.38,1.85-3.38,4.35,1.2,4.35,3.38,4.35,3.37-1.86,3.37-4.35Zm-5.44,0c0-1.91,.7-3.17,2.07-3.17s2.06,1.26,2.06,3.17-.68,3.17-2.06,3.17-2.07-1.26-2.07-3.17Z"/><path class="cls-2" d="M140.09,131.43c2.18,0,3.37-1.86,3.37-4.35s-1.19-4.35-3.37-4.35-3.38,1.85-3.38,4.35,1.2,4.35,3.38,4.35Zm0-7.52c1.38,0,2.06,1.26,2.06,3.17s-.68,3.17-2.06,3.17-2.07-1.26-2.07-3.17,.7-3.17,2.07-3.17Z"/><path class="cls-2" d="M143.46,159.87c0-2.51-1.19-4.35-3.37-4.35s-3.38,1.85-3.38,4.35,1.2,4.35,3.38,4.35,3.37-1.86,3.37-4.35Zm-3.37,3.17c-1.38,0-2.07-1.26-2.07-3.17s.7-3.17,2.07-3.17,2.06,1.26,2.06,3.17-.68,3.17-2.06,3.17Z"/><path class="cls-2" d="M134.72,171.92c-2.18,0-3.38,1.85-3.38,4.35s1.2,4.35,3.38,4.35,3.37-1.86,3.37-4.35-1.19-4.35-3.37-4.35Zm0,7.52c-1.38,0-2.07-1.26-2.07-3.17s.7-3.17,2.07-3.17,2.06,1.26,2.06,3.17-.68,3.17-2.06,3.17Z"/><path class="cls-2" d="M133.41,115.03c2.18,0,3.37-1.86,3.37-4.35s-1.19-4.35-3.37-4.35c-.06,0-.11,.02-.17,.02-.71,.3-1.41,.62-2.1,.96-.72,.78-1.11,1.97-1.11,3.37,0,2.49,1.2,4.35,3.38,4.35Zm0-7.52c1.38,0,2.06,1.26,2.06,3.17s-.68,3.17-2.06,3.17-2.07-1.26-2.07-3.17,.7-3.17,2.07-3.17Z"/><path class="cls-2" d="M169.56,173.37l.32,1.13,1.99-.96v5.03c.45-.3,.89-.6,1.32-.92v-5.58h-1.1l-2.53,1.3Z"/><path class="cls-2" d="M183.65,155.52c-2.18,0-3.38,1.85-3.38,4.35s1.2,4.35,3.38,4.35c.72,0,1.33-.22,1.82-.58,.54-1.02,1.05-2.06,1.51-3.12,.02-.21,.04-.42,.04-.64,0-2.51-1.19-4.35-3.37-4.35Zm0,7.52c-1.38,0-2.07-1.26-2.07-3.17s.7-3.17,2.07-3.17,2.06,1.26,2.06,3.17-.68,3.17-2.06,3.17Z"/><path class="cls-2" d="M123.7,112c-.45,.35-.89,.72-1.32,1.09v1.79h1.32v-2.88Z"/><path class="cls-2" d="M132.38,131.43c2.18,0,3.37-1.86,3.37-4.35s-1.19-4.35-3.37-4.35-3.38,1.85-3.38,4.35,1.2,4.35,3.38,4.35Zm0-7.52c1.38,0,2.06,1.26,2.06,3.17s-.68,3.17-2.06,3.17-2.07-1.26-2.07-3.17,.7-3.17,2.07-3.17Z"/><path class="cls-2" d="M150.33,171.92c-2.18,0-3.38,1.85-3.38,4.35s1.2,4.35,3.38,4.35,3.37-1.86,3.37-4.35-1.19-4.35-3.37-4.35Zm0,7.52c-1.38,0-2.07-1.26-2.07-3.17s.7-3.17,2.07-3.17,2.06,1.26,2.06,3.17-.68,3.17-2.06,3.17Z"/><path class="cls-2" d="M126.24,173.37l.32,1.13,1.99-.96v6.28c.38,.22,.76,.44,1.14,.65h.18v-8.4h-1.1l-2.53,1.3Z"/><polygon class="cls-2" points="116 156.97 116.32 158.1 118.32 157.14 118.32 164.07 119.64 164.07 119.64 155.68 118.53 155.68 116 156.97"/><polygon class="cls-2" points="141.85 173.37 142.17 174.5 144.16 173.54 144.16 180.47 145.48 180.47 145.48 172.08 144.38 172.08 141.85 173.37"/><polygon class="cls-2" points="134.61 147.67 134.61 139.28 133.51 139.28 130.98 140.57 131.3 141.7 133.29 140.74 133.29 147.67 134.61 147.67"/><polygon class="cls-2" points="147.58 164.07 147.58 155.68 146.48 155.68 143.95 156.97 144.27 158.1 146.26 157.14 146.26 164.07 147.58 164.07"/><polygon class="cls-2" points="149.98 147.67 149.98 139.28 148.88 139.28 146.35 140.57 146.67 141.7 148.66 140.74 148.66 147.67 149.98 147.67"/><polygon class="cls-2" points="155.48 131.27 155.48 122.88 154.38 122.88 151.84 124.17 152.17 125.3 154.16 124.34 154.16 131.27 155.48 131.27"/><path class="cls-2" d="M154.83,147.83c2.18,0,3.37-1.86,3.37-4.35s-1.19-4.35-3.37-4.35-3.38,1.85-3.38,4.35,1.2,4.35,3.38,4.35Zm0-7.52c1.38,0,2.06,1.26,2.06,3.17s-.68,3.17-2.06,3.17-2.07-1.26-2.07-3.17,.7-3.17,2.07-3.17Z"/><polygon class="cls-2" points="156.7 124.17 157.03 125.3 159.02 124.34 159.02 131.27 160.34 131.27 160.34 122.88 159.24 122.88 156.7 124.17"/><path class="cls-2" d="M149.02,115.03c2.18,0,3.37-1.86,3.37-4.35s-1.19-4.35-3.37-4.35-3.38,1.85-3.38,4.35,1.2,4.35,3.38,4.35Zm0-7.52c1.38,0,2.06,1.26,2.06,3.17s-.68,3.17-2.06,3.17-2.07-1.26-2.07-3.17,.7-3.17,2.07-3.17Z"/><polygon class="cls-2" points="122.28 147.67 122.28 139.28 121.17 139.28 118.64 140.57 118.96 141.7 120.96 140.74 120.96 147.67 122.28 147.67"/><polygon class="cls-2" points="124.5 164.07 124.5 155.68 123.39 155.68 120.86 156.97 121.18 158.1 123.18 157.14 123.18 164.07 124.5 164.07"/><path class="cls-2" d="M127.12,147.83c2.18,0,3.37-1.86,3.37-4.35s-1.19-4.35-3.37-4.35-3.38,1.85-3.38,4.35,1.2,4.35,3.38,4.35Zm0-7.52c1.38,0,2.06,1.26,2.06,3.17s-.68,3.17-2.06,3.17-2.07-1.26-2.07-3.17,.7-3.17,2.07-3.17Z"/><polygon class="cls-2" points="123.18 124.34 123.18 131.27 124.5 131.27 124.5 122.88 123.39 122.88 120.86 124.17 121.18 125.3 123.18 124.34"/><polygon class="cls-2" points="118.32 124.34 118.32 131.27 119.64 131.27 119.64 122.88 118.53 122.88 116 124.17 116.32 125.3 118.32 124.34"/><polygon class="cls-2" points="155.19 107.94 155.19 114.87 156.51 114.87 156.51 106.48 155.41 106.48 152.88 107.77 153.2 108.9 155.19 107.94"/></g><g><rect class="cls-2" x="70.04" y="77.93" width="28.92" height="1"/><rect class="cls-2" x="76.1" y="86.57" width="29.39" height="1"/><rect class="cls-2" x="63.44" y="95.22" width="18.13" height="1"/><rect class="cls-2" x="76.1" y="60.64" width="29.39" height="1"/><rect class="cls-2" x="63.44" y="69.28" width="18.13" height="1"/><path class="cls-2" d="M90.65,129.8h-20.61v1h20.38c.08-.33,.15-.67,.23-1Z"/><rect class="cls-2" x="63.44" y="121.16" width="18.13" height="1"/><rect class="cls-2" x="70.04" y="103.86" width="28.92" height="1"/><path class="cls-2" d="M208.5,121.16h-3.58c.14,.33,.26,.67,.39,1h3.18v-1Z"/><rect class="cls-2" x="190.36" y="95.22" width="18.13" height="1"/><path class="cls-2" d="M89.18,138.45h-13.08v1h13.01c.03-.33,.04-.67,.08-1Z"/><path class="cls-2" d="M196.56,104.86v-1h-2.59c.3,.33,.58,.67,.87,1h1.72Z"/><rect class="cls-2" x="175.28" y="86.57" width="29.39" height="1"/><rect class="cls-2" x="84.6" y="69.28" width="24.18" height="1"/><path class="cls-2" d="M204.67,112.51h-4.2c.21,.33,.41,.66,.61,1h3.59v-1Z"/><rect class="cls-2" x="148.06" y="69.28" width="24.18" height="1"/><rect class="cls-2" x="126.9" y="69.28" width="18.13" height="1"/><rect class="cls-2" x="127.53" y="60.64" width="44.08" height="1"/><path class="cls-2" d="M97.93,112.51h-21.83v1h21.23c.2-.34,.4-.67,.61-1Z"/><rect class="cls-2" x="76.1" y="233.55" width="29.39" height="1"/><rect class="cls-2" x="102.57" y="224.9" width="28.92" height="1"/><rect class="cls-2" x="127.53" y="233.55" width="44.08" height="1"/><rect class="cls-2" x="63.44" y="216.26" width="18.13" height="1"/><rect class="cls-2" x="70.04" y="224.9" width="28.92" height="1"/><rect class="cls-2" x="167.64" y="224.9" width="28.92" height="1"/><rect class="cls-2" x="175.28" y="233.55" width="29.39" height="1"/><rect class="cls-2" x="70.04" y="198.97" width="28.92" height="1"/><rect class="cls-2" x="63.44" y="164.38" width="18.13" height="1"/><path class="cls-2" d="M96.19,173.03h-26.15v1h26.72c-.19-.33-.39-.66-.58-1Z"/><rect class="cls-2" x="84.6" y="216.26" width="24.18" height="1"/><path class="cls-2" d="M101.92,181.67h-25.83v1h26.62c-.27-.33-.53-.67-.79-1Z"/><path class="cls-2" d="M90,155.74h-13.9v1h14.1c-.07-.33-.13-.67-.2-1Z"/><rect class="cls-2" x="76.1" y="207.61" width="29.39" height="1"/><rect class="cls-2" x="63.44" y="190.32" width="18.13" height="1"/><rect class="cls-2" x="63.44" y="147.09" width="18.13" height="1"/><rect class="cls-2" x="109.16" y="207.61" width="14.69" height="1"/><rect class="cls-2" x="175.28" y="207.61" width="29.39" height="1"/><rect class="cls-2" x="175.25" y="69.28" width="12.09" height="1"/><rect class="cls-2" x="175.25" y="216.26" width="12.09" height="1"/><rect class="cls-2" x="167.64" y="77.93" width="28.92" height="1"/><path class="cls-2" d="M84.6,148.09h4.43c-.02-.33-.05-.67-.06-1h-4.37v1Z"/><path class="cls-2" d="M172.32,199.97h24.25v-1h-21.99c-.75,.35-1.5,.68-2.26,1Z"/><path class="cls-2" d="M123.83,198.97h-21.25v1h23.51c-.76-.32-1.51-.65-2.26-1Z"/><path class="cls-2" d="M229.1,198.97h-26.79l-7.65-7.65h13.83v-1h-14.83l-6.97-6.97c10.29-9.87,16.71-23.74,16.71-39.09,0-29.89-24.32-54.21-54.21-54.21s-54.21,24.32-54.21,54.21,24.32,54.21,54.21,54.21c13.82,0,26.44-5.21,36.03-13.75l23.78,23.78-2.67,2.67,13.74,13.74h-19.9v1h20.9l5.29,5.29,6.78-6.78-7.16-7.16h9.7v-1h-10.7l-7.65-7.65h5.69v-1h-6.69l-3.23-3.23-2.7,2.7-7.11-7.11h25.79v-1Zm-79.9-2.5c-28.79,0-52.21-23.42-52.21-52.21s23.42-52.21,52.21-52.21,52.21,23.42,52.21,52.21-23.42,52.21-52.21,52.21Zm63.92,10.75l17.2,17.2-3.95,3.95-17.2-17.2,3.95-3.95Z"/><rect class="cls-2" x="111.79" y="216.26" width="12.09" height="1"/><path class="cls-2" d="M208.5,164.38h-2.44c-.12,.33-.24,.67-.36,1h2.8v-1Z"/><rect class="cls-2" x="208.35" y="233.55" width="14.69" height="1"/><rect class="cls-2" x="109.16" y="60.64" width="14.69" height="1"/><rect class="cls-2" x="200.18" y="51.99" width="28.92" height="1"/><rect class="cls-2" x="190.36" y="69.28" width="18.13" height="1"/><rect class="cls-2" x="175.28" y="60.64" width="29.39" height="1"/><rect class="cls-2" x="102.57" y="77.93" width="28.92" height="1"/><rect class="cls-2" x="111.79" y="69.28" width="12.09" height="1"/><rect class="cls-2" x="190.36" y="216.26" width="18.13" height="1"/><rect class="cls-2" x="135.11" y="224.9" width="28.92" height="1"/><rect class="cls-2" x="126.9" y="216.26" width="18.13" height="1"/><rect class="cls-2" x="127.53" y="207.61" width="44.08" height="1"/><path class="cls-2" d="M93.49,121.16h-8.89v1h8.49c.13-.33,.26-.67,.39-1Z"/><path class="cls-2" d="M84.6,165.38h8.11c-.12-.33-.24-.67-.36-1h-7.75v1Z"/><path class="cls-2" d="M103.56,104.86c.29-.33,.57-.67,.87-1h-1.85v1h.98Z"/><path class="cls-2" d="M204.67,181.67h-8.19c-.26,.33-.52,.67-.79,1h8.98v-1Z"/><rect class="cls-2" x="148.06" y="216.26" width="24.18" height="1"/><path class="cls-2" d="M187.34,96.22v-1h-3.06c.46,.33,.92,.66,1.37,1h1.69Z"/><path class="cls-2" d="M127.53,87.57h1.04c.99-.36,1.99-.69,3-1h-4.04v1Z"/><path class="cls-2" d="M169.84,87.57h1.77v-1h-4.78c1.01,.31,2.02,.64,3,1Z"/><rect class="cls-2" x="84.6" y="95.22" width="24.18" height="1"/><path class="cls-2" d="M112.75,96.22c.45-.34,.91-.67,1.37-1h-2.32v1h.95Z"/><rect class="cls-2" x="109.16" y="86.57" width="14.69" height="1"/><rect class="cls-2" x="135.11" y="77.93" width="28.92" height="1"/><rect class="cls-2" x="84.6" y="190.32" width="24.18" height="1"/><rect class="cls-2" x="54.42" y="207.61" width="18" height="1"/><rect class="cls-2" x="211.52" y="242.19" width="24.17" height="1"/><rect class="cls-2" x="175.25" y="242.19" width="12.09" height="1"/><rect class="cls-2" x="148.06" y="242.19" width="24.18" height="1"/><rect class="cls-2" x="238.71" y="242.19" width="6" height="1"/><rect class="cls-2" x="238.71" y="216.26" width="6" height="1"/><rect class="cls-2" x="126.9" y="242.19" width="18.13" height="1"/><rect class="cls-2" x="234.72" y="224.9" width="10" height="1"/><rect class="cls-2" x="226.71" y="233.55" width="18" height="1"/><rect class="cls-2" x="63.44" y="242.19" width="18.13" height="1"/><rect class="cls-2" x="54.42" y="233.55" width="18" height="1"/><rect class="cls-2" x="111.79" y="242.19" width="12.09" height="1"/><rect class="cls-2" x="54.42" y="224.9" width="12" height="1"/><rect class="cls-2" x="54.42" y="216.26" width="6" height="1"/><rect class="cls-2" x="54.42" y="242.19" width="6" height="1"/><rect class="cls-2" x="226.71" y="207.61" width="18" height="1"/><rect class="cls-2" x="109.16" y="233.55" width="14.69" height="1"/><rect class="cls-2" x="84.6" y="242.19" width="24.18" height="1"/><rect class="cls-2" x="190.36" y="242.19" width="18.13" height="1"/><rect class="cls-2" x="232.71" y="103.86" width="12" height="1"/><rect class="cls-2" x="238.71" y="95.22" width="6" height="1"/><rect class="cls-2" x="226.71" y="112.51" width="18" height="1"/><rect class="cls-2" x="226.71" y="86.57" width="18" height="1"/><rect class="cls-2" x="232.71" y="77.93" width="12" height="1"/><rect class="cls-2" x="232.71" y="51.99" width="12" height="1"/><rect class="cls-2" x="211.52" y="190.32" width="24.17" height="1"/><rect class="cls-2" x="238.71" y="69.28" width="6" height="1"/><rect class="cls-2" x="238.71" y="121.16" width="6" height="1"/><rect class="cls-2" x="238.71" y="190.32" width="6" height="1"/><rect class="cls-2" x="232.71" y="173.03" width="12" height="1"/><rect class="cls-2" x="226.71" y="181.67" width="18" height="1"/><rect class="cls-2" x="232.71" y="198.97" width="12" height="1"/><rect class="cls-2" x="238.71" y="164.38" width="6" height="1"/><rect class="cls-2" x="238.71" y="147.09" width="6" height="1"/><rect class="cls-2" x="226.71" y="138.45" width="18" height="1"/><rect class="cls-2" x="232.71" y="129.8" width="12" height="1"/><rect class="cls-2" x="226.71" y="155.74" width="18" height="1"/><rect class="cls-2" x="226.71" y="60.64" width="18" height="1"/><rect class="cls-2" x="211.52" y="95.22" width="24.17" height="1"/><rect class="cls-2" x="208.35" y="86.57" width="14.69" height="1"/><rect class="cls-2" x="200.18" y="77.93" width="28.92" height="1"/><rect class="cls-2" x="200.18" y="103.86" width="28.92" height="1"/><rect class="cls-2" x="208.35" y="60.64" width="14.69" height="1"/><rect class="cls-2" x="135.11" y="51.99" width="28.92" height="1"/><rect class="cls-2" x="211.52" y="69.28" width="24.17" height="1"/><rect class="cls-2" x="167.64" y="51.99" width="28.92" height="1"/><rect class="cls-2" x="208.35" y="112.51" width="14.69" height="1"/><rect class="cls-2" x="208.35" y="181.67" width="14.69" height="1"/><path class="cls-2" d="M229.1,173.03h-26.88c-.18,.34-.38,.67-.58,1h27.46v-1Z"/><rect class="cls-2" x="211.52" y="164.38" width="24.17" height="1"/><rect class="cls-2" x="102.57" y="51.99" width="28.92" height="1"/><path class="cls-2" d="M208.35,156.06v.68h14.69v-1h-14.64c-.02,.11-.04,.22-.06,.32Z"/><rect class="cls-2" x="211.52" y="121.16" width="24.17" height="1"/><path class="cls-2" d="M229.1,129.8h-21.35c.08,.33,.15,.67,.23,1h21.12v-1Z"/><rect class="cls-2" x="211.52" y="147.09" width="24.17" height="1"/><rect class="cls-2" x="54.42" y="198.97" width="12" height="1"/><path class="cls-2" d="M209.3,139.45h13.74v-1h-13.82c.03,.33,.05,.67,.08,1Z"/><rect class="cls-2" x="54.42" y="138.45" width="18" height="1"/><rect class="cls-2" x="54.42" y="147.09" width="6" height="1"/><rect class="cls-2" x="54.42" y="155.74" width="18" height="1"/><rect class="cls-2" x="54.42" y="129.8" width="12" height="1"/><rect class="cls-2" x="54.42" y="181.67" width="18" height="1"/><rect class="cls-2" x="54.42" y="190.32" width="6" height="1"/><rect class="cls-2" x="54.42" y="121.16" width="6" height="1"/><rect class="cls-2" x="54.42" y="173.03" width="12" height="1"/><rect class="cls-2" x="54.42" y="164.38" width="6" height="1"/><rect class="cls-2" x="54.42" y="95.22" width="6" height="1"/><rect class="cls-2" x="54.42" y="69.28" width="6" height="1"/><rect class="cls-2" x="54.42" y="60.64" width="18" height="1"/><rect class="cls-2" x="54.42" y="51.99" width="12" height="1"/><rect class="cls-2" x="54.42" y="77.93" width="12" height="1"/><rect class="cls-2" x="54.42" y="103.86" width="12" height="1"/><rect class="cls-2" x="54.42" y="86.57" width="18" height="1"/><rect class="cls-2" x="54.42" y="112.51" width="18" height="1"/><rect class="cls-2" x="70.04" y="51.99" width="28.92" height="1"/></g></svg>