<?xml version="1.0" encoding="UTF-8" standalone="no"?>
<svg
   xmlns:dc="http://purl.org/dc/elements/1.1/"
   xmlns:cc="http://creativecommons.org/ns#"
   xmlns:rdf="http://www.w3.org/1999/02/22-rdf-syntax-ns#"
   xmlns:svg="http://www.w3.org/2000/svg"
   xmlns="http://www.w3.org/2000/svg"
   xmlns:sodipodi="http://sodipodi.sourceforge.net/DTD/sodipodi-0.dtd"
   xmlns:inkscape="http://www.inkscape.org/namespaces/inkscape"
   id="Ebene_1"
   viewBox="0 0 300 300"
   version="1.1"
   sodipodi:docname="wd_emblem_dark.svg"
   inkscape:version="0.92.4 (5da689c313, 2019-01-14)"
   inkscape:export-filename="D:\datatools\Documents\operation\website\v0.3\img\wd_emblem_dark.png"
   inkscape:export-xdpi="300"
   inkscape:export-ydpi="300">
  <metadata
     id="metadata11">
    <rdf:RDF>
      <cc:Work
         rdf:about="">
        <dc:format>image/svg+xml</dc:format>
        <dc:type
           rdf:resource="http://purl.org/dc/dcmitype/StillImage" />
        <dc:title></dc:title>
      </cc:Work>
    </rdf:RDF>
  </metadata>
  <sodipodi:namedview
     pagecolor="#320064"
     bordercolor="#666666"
     borderopacity="1"
     objecttolerance="10"
     gridtolerance="10"
     guidetolerance="10"
     inkscape:pageopacity="1"
     inkscape:pageshadow="2"
     inkscape:window-width="1920"
     inkscape:window-height="1009"
     id="namedview9"
     showgrid="false"
     inkscape:zoom="0.78666667"
     inkscape:cx="150"
     inkscape:cy="150"
     inkscape:window-x="-8"
     inkscape:window-y="-8"
     inkscape:window-maximized="1"
     inkscape:current-layer="Ebene_1" />
  <defs
     id="defs4">
    <style
       id="style2">.cls-1{fill:#f0fadc;}</style>
  </defs>
  <path
     class="cls-1"
     d="M236.72,114.72c-22.54,0-43.08,8.36-58.71,22.18l12.18-31.63h-7.09l-13.63,35.45-15.63-35.45h-6.54l-13.63,34.9-13.45-34.9h-7.09l12.54,32.72c-15.81-14.36-36.9-23.27-59.99-23.27h-8.54c.73,2.36,1.45,4.73,2,7.09h6.54c3.82,0,7.63,.18,11.27,.73-3.45,6.36-5.45,13.63-5.45,21.45,0,24.72,20.18,44.72,44.72,44.72,4.18,0,8.18-.55,12-1.64,7.09,8.54,12.54,18.54,15.63,29.27h14.36c3.09-10.54,8.36-20.54,15.45-28.9,3.45,.91,7.09,1.27,10.91,1.27,24.72,0,44.72-20.18,44.72-44.72,0-7.63-2-14.91-5.45-21.27,4-.73,8.36-.91,12.54-.91h6.91c.55-2.36,1.27-4.73,2-7.09h-8.54Zm-61.8,35.08c.36,.73,1.09,1.45,1.64,2.18,4.36,4.36,11.63,4.36,16,0,4.36-4.36,4.36-11.63,0-16-.18-.18-.55-.55-.91-.73,3.09-2,6.18-3.82,9.45-5.45,3.27,3.82,5.27,8.73,5.27,14.18,0,12-9.82,21.99-21.99,21.99-6.54,0-12.36-2.91-16.36-7.27,2.36-3.27,4.54-6.18,6.91-8.91Zm-74.89-20.36c3.45,1.64,6.54,3.45,9.82,5.45-.55,.36-1.09,.73-1.45,1.27-4.36,4.36-4.36,11.63,0,16,4.36,4.36,11.63,4.36,16,0,.91-.91,1.64-2,2.18-3.09,2.54,2.73,4.73,5.64,6.91,8.73-4,5.09-10.18,8.18-17.09,8.18-12,0-22-9.82-22-21.99,.18-5.64,2.18-10.72,5.64-14.54Zm16.36,52.35c-20.9,0-37.81-16.91-37.81-37.81,0-7.27,2.18-14.18,5.82-20,2.91,.73,6,1.64,8.73,2.54-3.64,4.91-5.82,10.91-5.82,17.45,0,16,12.91,28.9,28.9,28.9,8.18,0,15.63-3.45,20.9-8.91,1.45,2.73,2.91,5.45,4,8.18-6.36,6-15.27,9.63-24.72,9.63Zm31.27,23.81c-3.09-7.63-7.27-14.54-12.36-21.09,3.09-1.45,6-3.27,8.54-5.27,2.36,7.63,3.82,16,3.82,24.54v1.82Zm-11.09-55.81l14.18-35.99,15.63,35.45c-6.73,8.73-12,18.72-15.09,29.63-3.27-10.54-8.18-20.36-14.72-29.08Zm18.18,55.81v-1.82c0-8.18,1.27-16.18,3.45-23.63,2.54,2,5.45,3.64,8.54,4.91-4.91,6.18-8.91,13.09-12,20.54Zm29.81-23.81c-9.09,0-17.45-3.27-23.99-8.73,1.09-2.91,2.36-5.64,4-8.18,5.27,5.09,12.36,8.18,20.18,8.18,16,0,28.9-12.91,28.9-28.9,0-6.36-2-12.18-5.64-17.09,2.91-1.09,5.82-2,8.73-2.73,3.45,5.82,5.64,12.54,5.64,19.81,0,20.54-16.91,37.63-37.81,37.63Z"
     id="path6"
     style="fill:#f7f7f7;fill-opacity:1" />
</svg>
