<?xml version="1.0" encoding="UTF-8"?><svg id="Ebene_1" xmlns="http://www.w3.org/2000/svg" viewBox="0 0 300 300"><defs><style>.cls-1{fill:#f0fadc;}.cls-2{fill:#8246aa;}.cls-3{fill:#320064;}</style></defs><g><polygon class="cls-1" points="148.63 180.23 149.63 180.23 149.63 159.98 189.04 55.57 188.11 55.22 149.13 158.47 110.15 55.22 109.22 55.57 148.63 159.98 148.63 180.23"/><rect class="cls-1" x="122.61" y="145.65" width="1" height="32.86" transform="translate(-78.62 189.07) rotate(-60.4)"/><rect class="cls-1" x="99.86" y="144.94" width="1" height="8.43" transform="translate(-78.9 162.76) rotate(-60.4)"/><rect class="cls-1" x="90.72" y="141.83" width="1" height="4.28" transform="translate(-79.01 152.16) rotate(-60.4)"/><rect class="cls-1" x="131.93" y="145.64" width="1" height="18.44" transform="translate(-65.85 107.91) rotate(-36.14)"/><rect class="cls-1" x="118.72" y="131.51" width="1" height="10.47" transform="translate(-57.71 96.63) rotate(-36.14)"/><rect class="cls-1" x="111.02" y="123.55" width="1" height="5.33" transform="translate(-52.97 90.07) rotate(-36.14)"/><rect class="cls-1" x="129.96" y="166.23" width="1" height="18.79" transform="translate(-67.83 268.07) rotate(-78.39)"/><rect class="cls-1" x="107.53" y="165.72" width="1" height="10.59" transform="translate(-81.23 242.42) rotate(-78.39)"/><rect class="cls-1" x="94.89" y="165.44" width="1" height="5.95" transform="translate(-88.78 227.97) rotate(-78.39)"/><rect class="cls-1" x="152.09" y="168.41" width="32.86" height="1" transform="translate(-61.43 105.27) rotate(-29.6)"/><rect class="cls-1" x="187.05" y="155.49" width="8.43" height="1" transform="translate(-52.08 114.82) rotate(-29.6)"/><rect class="cls-1" x="198.26" y="150.3" width="4.28" height="1" transform="translate(-48.34 118.75) rotate(-29.62)"/><rect class="cls-1" x="160.68" y="152.29" width="13.32" height="1" transform="translate(-54.72 197.91) rotate(-53.88)"/><rect class="cls-1" x="176.23" y="135.02" width="7.43" height="1" transform="translate(-35.6 201) rotate(-53.88)"/><rect class="cls-1" x="185.8" y="124.83" width="3.16" height="1" transform="translate(-24.33 202.8) rotate(-53.88)"/><rect class="cls-1" x="165.32" y="174.42" width="11.81" height="1" transform="translate(-31.7 38.04) rotate(-11.61)"/><rect class="cls-1" x="181.39" y="170.88" width="14.17" height="1" transform="translate(-30.63 41.44) rotate(-11.61)"/><rect class="cls-1" x="199.89" y="167.92" width="5.95" height="1" transform="translate(-29.74 44.27) rotate(-11.61)"/><path class="cls-1" d="M205.96,199.34c-16.71-11.75-36.36-17.95-56.83-17.95s-40.12,6.21-56.83,17.95c-16.33,11.48-28.71,27.39-35.81,46l1.87,.71c6.96-18.24,19.09-33.82,35.09-45.07,16.37-11.51,35.62-17.59,55.68-17.59s39.31,6.08,55.68,17.59c16,11.25,28.14,26.84,35.09,45.07l1.87-.71c-7.1-18.61-19.48-34.52-35.81-46Z"/></g><path class="cls-3" d="M232.3,245.69c-13.72-32.38-45.79-55.09-83.16-55.09s-69.45,22.71-83.16,55.09H232.3Z"/><path class="cls-2" d="M216.12,245.69c-12.67-24.06-37.9-40.47-66.99-40.47s-54.32,16.41-66.99,40.47H216.12Z"/></svg>