<?xml version="1.0" encoding="UTF-8" standalone="no"?>
<svg
   xmlns:dc="http://purl.org/dc/elements/1.1/"
   xmlns:cc="http://creativecommons.org/ns#"
   xmlns:rdf="http://www.w3.org/1999/02/22-rdf-syntax-ns#"
   xmlns:svg="http://www.w3.org/2000/svg"
   xmlns="http://www.w3.org/2000/svg"
   xmlns:sodipodi="http://sodipodi.sourceforge.net/DTD/sodipodi-0.dtd"
   xmlns:inkscape="http://www.inkscape.org/namespaces/inkscape"
   id="_005"
   data-name="005"
   viewBox="0 0 1594.92 841.89"
   version="1.1"
   sodipodi:docname="wd_logo.svg"
   inkscape:export-filename="D:\datatools\Documents\operation\website\v0.3\img\wd_logo.png"
   inkscape:export-xdpi="300"
   inkscape:export-ydpi="300"
   inkscape:version="0.92.4 (5da689c313, 2019-01-14)">
  <metadata
     id="metadata15">
    <rdf:RDF>
      <cc:Work
         rdf:about="">
        <dc:format>image/svg+xml</dc:format>
        <dc:type
           rdf:resource="http://purl.org/dc/dcmitype/StillImage" />
      </cc:Work>
    </rdf:RDF>
  </metadata>
  <sodipodi:namedview
     pagecolor="#ffffff"
     bordercolor="#666666"
     borderopacity="1"
     objecttolerance="10"
     gridtolerance="10"
     guidetolerance="10"
     inkscape:pageopacity="0"
     inkscape:pageshadow="2"
     inkscape:window-width="1920"
     inkscape:window-height="1009"
     id="namedview13"
     showgrid="false"
     inkscape:zoom="0.8270007"
     inkscape:cx="616.0817"
     inkscape:cy="420.94501"
     inkscape:window-x="-8"
     inkscape:window-y="-8"
     inkscape:window-maximized="1"
     inkscape:current-layer="_005" />
  <defs
     id="defs4">
    <style
       id="style2">.cls-1{fill:#2f1d70;}</style>
  </defs>
  <title
     id="title6">wittwer_datatools_Logo_Display</title>
  <path
     class="cls-1"
     d="M783.68,490.09c-5.73-8.16-15.1-13.44-27.33-13.44-21.44,0-37.75,17.06-37.75,39.86,0,23,16.31,40,37.75,40,12.23,0,21.6-5.29,27.33-13.44v11.48h15.71v-76H783.68Zm-24.76,52.24c-14.5,0-24.76-10.87-24.76-25.82s10.26-25.67,24.76-25.67c13.89,0,25.07,10.87,25.07,25.67C784,531.46,772.81,542.33,758.92,542.33Zm74.63-142.17a21.12,21.12,0,0,1-10,2.42c-7.24,0-10.87-4.23-10.87-11.63V353.66h24.16V339.61H812.71V314.24H797v25.37h-13.9v14.05H797V391c0,15.56,7.4,25.82,23.7,25.82a40.77,40.77,0,0,0,16.76-3.62Zm-92,15.41H757.3v-76H741.59Zm8-88.34a9.74,9.74,0,1,0-10-9.81A9.74,9.74,0,0,0,749.59,327.23Zm-66.28,68.4-17.52-56H652.35l-17.67,56.17-17.81-56.17H600.56l26.12,76h15L659,362.41l17.36,53.16h15.1l26.12-76H701.12Zm181.91,146c-7.24,0-10.87-4.23-10.87-11.63V492.66h24.16V478.61H854.35V453.24h-15.7v25.37H824.76v14.05h13.89V530c0,15.55,7.4,25.82,23.7,25.82a40.85,40.85,0,0,0,16.77-3.62l-3.93-13A21.12,21.12,0,0,1,865.22,541.58ZM676.36,490.09c-5.74-8.16-15.1-13.44-27.33-13.44-21.44,0-37.75,17.06-37.75,39.86,0,23,16.31,40,37.75,40,12.23,0,21.59-5.29,27.33-13.44v11.48h15.7V444.33h-15.7ZM651.6,542.33c-14.5,0-24.77-10.87-24.77-25.82s10.27-25.67,24.77-25.67c13.89,0,25.06,10.87,25.06,25.67C676.66,531.46,665.49,542.33,651.6,542.33Zm394.26-202.72H1029.4l-17.82,56-17.52-56H980.62L963,395.78l-17.82-56.17H928.83l26.12,76H969.9l17.37-53.16,17.36,53.16h15.1ZM907.69,400.16a21.12,21.12,0,0,1-10,2.42c-7.24,0-10.87-4.23-10.87-11.63V353.66H911V339.61H886.85V314.24h-15.7v25.37H857.26v14.05h13.89V391c0,15.56,7.4,25.82,23.7,25.82a40.85,40.85,0,0,0,16.77-3.62Zm367.65,154.41h15.85V444.33h-15.85Zm-62.67-77.92c-23.25,0-40.32,17.21-40.32,39.86s17.07,40,40.32,40,40.32-17.22,40.32-40S1235.93,476.65,1212.67,476.65Zm0,65.53c-14.49,0-24.91-11-24.91-25.52S1198.18,491,1212.67,491s24.92,11,24.92,25.67S1227.17,542.18,1212.67,542.18ZM1362.16,512l-20.23-5.89c-5.14-1.66-8.16-3.77-8.16-7.55,0-4.53,5.29-9.21,13.29-9.21,9.51,0,16.16,4.84,19,10.57l14-4.07c-4.53-11-16.46-19.18-32.92-19.18-16.16,0-29,10-29,22.05,0,10.87,8,16.45,18.12,19.47l20.38,6c6.8,2,9.82,4.38,9.82,9.06,0,5.44-6.19,10.27-15.86,10.27-10.87,0-19.17-6.34-21.89-14.34l-14.35,4.22c3.78,12.39,17.82,23.11,35.79,23.11,18.73,0,31.86-10.27,31.86-23.86C1382.09,519.83,1372.88,515,1362.16,512Zm-181-130.69c0-22.05,9.82-30.2,26-27.79V338.71c-12.53-1.66-21.44,3.77-26,13V339.61H1165.3v76h15.85ZM1044.46,541.58c-7.25,0-10.87-4.23-10.87-11.63V492.66h24.16V478.61h-24.16V453.24h-15.71v25.37H1004v14.05h13.89V530c0,15.55,7.4,25.82,23.71,25.82a40.8,40.8,0,0,0,16.76-3.62l-3.92-13A21.18,21.18,0,0,1,1044.46,541.58Zm69.91-64.93c-23.25,0-40.32,17.21-40.32,39.86s17.07,40,40.32,40,40.32-17.22,40.32-40S1137.63,476.65,1114.37,476.65Zm0,65.53c-14.49,0-24.91-11-24.91-25.52S1099.88,491,1114.37,491s24.92,11,24.92,25.67S1128.87,542.18,1114.37,542.18ZM962.92,490.09c-5.74-8.16-15.1-13.44-27.33-13.44-21.44,0-37.75,17.06-37.75,39.86,0,23,16.31,40,37.75,40,12.23,0,21.59-5.29,27.33-13.44v11.48h15.7v-76h-15.7Zm-24.76,52.24c-14.5,0-24.77-10.87-24.77-25.82s10.27-25.67,24.77-25.67c13.89,0,25.06,10.87,25.06,25.67C963.22,531.46,952.05,542.33,938.16,542.33ZM1136,395.94l-14.49-4.23c-3.18,6.64-10.27,12.23-21.6,12.23-15.4,0-24.16-8.91-25.21-21.44h61.75a43.76,43.76,0,0,0,.46-6.35c0-21.44-14.05-38.5-38.66-38.5-23.55,0-39.11,17.36-39.11,40,0,24,16.76,39.87,40.47,39.87C1119.39,417.53,1131.32,406.2,1136,395.94Zm-37.75-44.7c13.89,0,22.2,8.91,23.1,20.54l-46.65.15C1075.75,361.05,1084.66,351.24,1098.25,351.24Z"
     id="path8" />
  <path
     class="cls-1"
     d="M519.06,279.72a163,163,0,0,0-108,40.76l22.38-58.14H420.41l-25.05,65.1-28.58-65.1H354.53l-25.12,64.28-24.6-64.28H291.75l23.07,60.16A163.06,163.06,0,0,0,204.6,279.72h-18q2.19,6.38,3.82,13H204.6a151.49,151.49,0,0,1,20.88,1.46,82.34,82.34,0,0,0,94.31,118.76,150.61,150.61,0,0,1,28.39,52.4h27.3a150.57,150.57,0,0,1,27.91-51.83,82.34,82.34,0,0,0,92.39-119,151.42,151.42,0,0,1,23.28-1.8h11.62q1.64-6.62,3.82-13Zm-88,41.42a14.67,14.67,0,1,1-21.18,18.47A152.08,152.08,0,0,1,431.08,321.14ZM401,349.91a27.66,27.66,0,1,0,41.54-36.24,150.71,150.71,0,0,1,13.68-7.19,42.62,42.62,0,0,1-64.21,56A150.94,150.94,0,0,1,401,349.91ZM291.45,320.33a152.07,152.07,0,0,1,20.44,17.37,14.68,14.68,0,1,1-20.44-17.37Zm-25.83-14.69a151.32,151.32,0,0,1,14,7.1,27.66,27.66,0,1,0,41.7,35.43,149.4,149.4,0,0,1,9.28,12.62,42.61,42.61,0,1,1-64.95-55.15Zm32.19,97.3A69.36,69.36,0,0,1,239,296.7q7.1,1.67,13.91,4a55.6,55.6,0,0,0,84.57,71.77q3.41,6.35,6.21,13A69.08,69.08,0,0,1,297.81,402.94Zm57.52,43.88a163.55,163.55,0,0,0-22.65-38.65,82.77,82.77,0,0,0,15.79-9.71,150.42,150.42,0,0,1,6.86,45ZM334.84,344.37,360.94,278,389.7,343.2a163.48,163.48,0,0,0-27.87,54.55A163.25,163.25,0,0,0,334.84,344.37Zm33.49,102.45v-3.36a150,150,0,0,1,6.38-43.41,82.26,82.26,0,0,0,15.59,9A163.32,163.32,0,0,0,368.33,446.82Zm54.93-43.88a69,69,0,0,1-44-15.82q2.7-6.67,6-13a55.59,55.59,0,0,0,83.39-72.7q6.72-2.4,13.72-4.16a69.34,69.34,0,0,1-59.1,105.69Z"
     id="path10" />
</svg>
