<?xml version="1.0" encoding="UTF-8"?><svg id="Ebene_1" xmlns="http://www.w3.org/2000/svg" viewBox="0 0 300 300"><defs><style>.cls-1{fill:#f0fadc;}.cls-2{fill:#dce6c8;}.cls-3{fill:#320064;}</style></defs><g><polygon class="cls-3" points="149.03 180.23 150.03 180.23 150.03 159.98 189.44 55.57 188.51 55.22 149.53 158.47 110.56 55.22 109.62 55.57 149.03 159.98 149.03 180.23"/><rect class="cls-3" x="123.01" y="145.65" width="1" height="32.86" transform="translate(-78.42 189.42) rotate(-60.4)"/><rect class="cls-3" x="100.26" y="144.94" width="1" height="8.43" transform="translate(-78.7 163.1) rotate(-60.4)"/><rect class="cls-3" x="91.13" y="141.83" width="1" height="4.28" transform="translate(-78.81 152.51) rotate(-60.4)"/><rect class="cls-3" x="132.33" y="145.64" width="1" height="18.44" transform="translate(-65.74 108.03) rotate(-36.11)"/><rect class="cls-3" x="119.12" y="131.51" width="1" height="10.47" transform="translate(-57.61 96.77) rotate(-36.11)"/><rect class="cls-3" x="111.42" y="123.55" width="1" height="5.33" transform="translate(-52.88 90.21) rotate(-36.11)"/><rect class="cls-3" x="130.36" y="166.23" width="1" height="18.79" transform="translate(-67.51 268.46) rotate(-78.39)"/><rect class="cls-3" x="107.93" y="165.72" width="1" height="10.59" transform="translate(-80.91 242.82) rotate(-78.39)"/><rect class="cls-3" x="95.29" y="165.44" width="1" height="5.95" transform="translate(-88.46 228.36) rotate(-78.39)"/><rect class="cls-3" x="152.49" y="168.41" width="32.86" height="1" transform="translate(-61.38 105.47) rotate(-29.6)"/><rect class="cls-3" x="187.45" y="155.49" width="8.43" height="1" transform="translate(-52.03 115.01) rotate(-29.6)"/><rect class="cls-3" x="198.66" y="150.3" width="4.28" height="1" transform="translate(-48.29 118.95) rotate(-29.62)"/><rect class="cls-3" x="161.08" y="152.29" width="13.32" height="1" transform="translate(-54.56 198.23) rotate(-53.88)"/><rect class="cls-3" x="176.63" y="135.02" width="7.44" height="1" transform="translate(-35.44 201.31) rotate(-53.88)"/><rect class="cls-3" x="186.2" y="124.83" width="3.16" height="1" transform="translate(-24.17 203.1) rotate(-53.87)"/><rect class="cls-3" x="165.72" y="174.42" width="11.81" height="1" transform="translate(-31.69 38.12) rotate(-11.61)"/><rect class="cls-3" x="181.79" y="170.88" width="14.17" height="1" transform="translate(-30.63 41.52) rotate(-11.61)"/><rect class="cls-3" x="200.29" y="167.92" width="5.95" height="1" transform="translate(-29.74 44.36) rotate(-11.61)"/><path class="cls-3" d="M206.36,199.34c-16.71-11.75-36.36-17.95-56.83-17.95s-40.12,6.21-56.83,17.95c-16.33,11.48-28.71,27.39-35.81,46l1.87,.71c6.96-18.24,19.09-33.82,35.09-45.07,16.37-11.51,35.62-17.59,55.68-17.59s39.31,6.08,55.68,17.59c16,11.25,28.14,26.84,35.09,45.07l1.87-.71c-7.1-18.61-19.48-34.52-35.81-46Z"/></g><path class="cls-2" d="M232.7,245.69c-13.72-32.38-45.79-55.09-83.16-55.09s-69.45,22.71-83.16,55.09H232.7Z"/><path class="cls-1" d="M216.52,245.69c-12.67-24.06-37.9-40.47-66.99-40.47s-54.32,16.41-66.99,40.47H216.52Z"/></svg>