<?xml version="1.0" encoding="UTF-8" standalone="no"?>
<svg
   xmlns:dc="http://purl.org/dc/elements/1.1/"
   xmlns:cc="http://creativecommons.org/ns#"
   xmlns:rdf="http://www.w3.org/1999/02/22-rdf-syntax-ns#"
   xmlns:svg="http://www.w3.org/2000/svg"
   xmlns="http://www.w3.org/2000/svg"
   xmlns:sodipodi="http://sodipodi.sourceforge.net/DTD/sodipodi-0.dtd"
   xmlns:inkscape="http://www.inkscape.org/namespaces/inkscape"
   id="Ebene_1"
   viewBox="0 0 618 120"
   version="1.1"
   sodipodi:docname="Mesh_hell.svg"
   inkscape:version="1.0.2 (e86c870879, 2021-01-15)">
  <metadata
     id="metadata11">
    <rdf:RDF>
      <cc:Work
         rdf:about="">
        <dc:format>image/svg+xml</dc:format>
        <dc:type
           rdf:resource="http://purl.org/dc/dcmitype/StillImage" />
        <dc:title></dc:title>
      </cc:Work>
    </rdf:RDF>
  </metadata>
  <sodipodi:namedview
     pagecolor="#320064"
     bordercolor="#666666"
     borderopacity="1"
     objecttolerance="10"
     gridtolerance="10"
     guidetolerance="10"
     inkscape:pageopacity="1"
     inkscape:pageshadow="2"
     inkscape:window-width="1920"
     inkscape:window-height="1016"
     id="namedview9"
     showgrid="false"
     inkscape:zoom="2.1343042"
     inkscape:cx="309"
     inkscape:cy="60"
     inkscape:window-x="0"
     inkscape:window-y="0"
     inkscape:window-maximized="1"
     inkscape:current-layer="Ebene_1" />
  <defs
     id="defs4">
    <style
       id="style2">.cls-1{fill:#f0fadc;}</style>
  </defs>
  <path
     class="cls-1"
     d="M612.87,5.28s0-.02,0-.03c0-.02-.03-.02-.04-.03-.01-.01-.01-.04-.03-.04-.01,0-.02,0-.03,0,0,0-.01-.02-.02-.02H4.16s-.01,.01-.02,.02c-.01,0-.02,0-.03,0-.02,0-.02,.03-.03,.05-.01,.01-.03,.01-.04,.03,0,0,0,.02,0,.02,0,0-.01,.01-.01,.02V114.63s.01,.01,.01,.02c0,0,0,.02,0,.02,0,.02,.03,.01,.04,.03,.01,.02,.01,.04,.03,.05,.02,0,.04,.01,.05,.01H612.75s.04,0,.05-.01c.02,0,.02-.03,.03-.04,.01-.01,.03-.01,.04-.03,0,0,0-.02,0-.03,0,0,.01-.01,.01-.02V5.3s-.01-.01-.01-.02Zm-269.02,.3l.87,1.22,10.2,14.25-21.45,10.42,10.1-25.2,.28-.69Zm209.84-.02l.25,.34,5.19,6.88-8.1-1.44,.37-.8,2.28-4.98Zm58.93,13.68v4.01l-.61-.47-1.95-1.53,1.95-1.53,.61-.47Zm0,59.27v4.1l-1.33-.06-2.57-.11,.27-.27,3.63-3.66Zm0,27.3v4.02l-2.6-1.77,1.4-1.21,1.2-1.03Zm-9.93,8.58l-1.1-3.9,3.42,1.74-1.21,1.13-1.11,1.03Zm-58.22,0l-4.61-5.08,5.86-1.34,2.07-.47-.96,1.99-2.36,4.9Zm-34.4-8.57l-9.17,8.5,.29-13.16,5.37,2.82,3.52,1.84Zm-18.11,.12l-4.2,8.44-7.99-10.1,12.19,1.66Zm-84.49,8.35l-2.09-17.12-.06-.52,11.74,5.24-4.25,5.5-5.34,6.9Zm-77.62-20.11l-10.36,20.16-9.34-17.98,20.06-2.87-.36,.7Zm-170.1,8.12l-9.17-12.22,12.14-2.08,22.26-3.82-16.17,30.2-9.06-12.08ZM131.89,5.53l7.25,9.15,11.2,14.14-8.55,2.02-29.51,6.99,13.36-22.01,6.25-10.3Zm36.93,.01l15.92,29.73,.25,.47-34.19-6.92,11.29-14.58,6.73-8.69Zm98.95,1.81l19.28,15.63-16.84,10.4-2.45-14.88-2.12-12.89,2.13,1.73Zm106.74,16.49l13.09-18.24,3.58,13.18-16.67,5.06Zm90.15-10.36l-12.5,4.12,6.79-12.06,5.71,7.94Zm23.1-7.91l4.6,9.72-4.12-.93-5.35-1.21,4.41-6.87,.46-.71Zm86.46,3.22l3.34-3.28,3.6,5.6-.89-.3-6.05-2.02Zm34.77-1.25l.34,.58-3.8-.49,2.29-2.12,1.17,2.03Zm3.11,11.76l-2.2,1.73-.33-.87-1.31-3.48,4.24,2.31-.4,.31Zm-3.06,20.08l-.1,.06-1.48-4.23,4.99,2-3.41,2.17Zm2.16,21.52l-1.37,.98-.94-3.98,3.6,2.08-1.29,.92Zm1.4,3.83v4.11l-3.84-2.34,2.53-1.17,1.31-.6Zm0,26.97l-4.18-.75,4.18-3.37v4.12Zm-.14,.24l-3.97,4.12-.24-4.87,3.67,.66,.54,.1Zm.14,9.28v4.14l-4.49-.98,2.57-1.8,1.92-1.35Zm-120.62,4.46l-12.21-1.66,10.43-8.09,1.78,9.75Zm-72.35-4.72l9.05-3.92-2.99,17.24-8.24-12.38,2.18-.94ZM112.29,76.99l-41.17,13.92v-30.74l.28,.11,40.89,16.71Zm-63.94,13.13l-15.37-.57,6.33-29.31,26.6,26.08,4.73,4.64-22.3-.83ZM4.48,78.17l34.57-17.96-6.33,29.27-16.46-6.59-11.79-4.72Zm11.96-41.2l16.29-6.52,6.33,29.27L4.48,41.76l11.96-4.79Zm173.05-1.61l25.1-4.15,.88,28.39v.09l-29.9-23.68,3.92-.65Zm274.83-14.06l-.09,1.49-6.38-2.64-5.58-2.31,12.48-4.11-.43,7.56Zm142.27,78.94l5.82,.81-4.23,2.97-.29,.21-1.09-3.36-.2-.63Zm-116.56-4.48l-10.44,8.1-.84-10.94,11.23,2.83h.05Zm-36.46,5.89l-14.02,1.59,7.7-13.69,1.96,3.75,4.36,8.34Zm-18.39-14.66l-6.3,9.62-10.03-12.67,16.34,3.04Zm-16.82-2.91l-1.2,17.58-11.75-5.25,12.95-12.34Zm-78.7-6.16l2.04-3.48,9.86,23.51-20.89-4.7,8.99-15.33Zm-86.32,21.58l-12.17-15.7,29.92,2.1-16.56,12.69-1.18,.91ZM70.85,59.83h-31.29l31.29-30.68v30.68Zm0,30.94l-31.29-30.68h31.29v30.68Zm199.54-57.19l16.81-10.39,6.58,20.99-8.76-3.97-14.63-6.63ZM416.8,15.88l11.39,7.63-10.29,12.7-.17-3.19-.92-17.14Zm31.68,7.89l-4.43,8.09-5.25-14.9,12.87,.99-3.19,5.82Zm134.57-11.71l6.22,2.27-5.26,3.14-2.29-5.9,1.33,.48Zm22.11-4.14l.48,1.87,.35,1.35-5-1.09,4.16-2.13Zm3.7,17l-.81,4.4-3.36-3.57,2.3-.46,1.87-.37Zm-4.47,15.1l2.83-4.73,1.48,4.24-4.32,.49Zm2.5,46.98l.03,.12,1.02,3.72-4.07-1.02,2.08-1.94,.94-.88Zm1.32,9.42l-1.79,3.32-1.69-4.93,.18,.09,3.3,1.53Zm-41.07,5.67l-5.33,2.93-1.22-7.13,3.28,2.1,3.27,2.1Zm-10.23,.92l4.52,2.22-5.38,3.22-1.62-6.67,2.48,1.22Zm-56.02-2.3l-10.34-5.06,8.63-7.16,.54,3.88,1.17,8.33Zm-31.66-3.9l9.23-3.89,.84,10.96-12.59-6.01,2.51-1.06Zm-34.03-10.11l-16.36-3.05,5.47-3.7,7.98-5.4,1.49,6.19,1.43,5.95Zm-89.31-2.93l-3.95-9.43,17.66,6.28-7.83,17.15-5.87-14Zm-4.44-9.49l-11.02,18.79-11.04-16.35,22.06-2.44Zm-152.38-14.45l-3.59-23.11-.07-.48,29.8,23.59h-26.14Zm-3.94-23.66l3.67,23.66h-33.55l29.88-23.66Zm3.67,23.93l-3.67,23.66-29.88-23.66h33.55Zm.27,0h26.14l-29.8,23.59,.07-.48,3.59-23.11Zm122.45-25.36l2.76,9.58-20.02-.02,14.59-18.85,2.67,9.28Zm130.09-3.73l2.01,1.12-5.29,1.01-7.37,1.41-2.4-10.81,13.05,7.27Zm103.53-16.24l5.65-3.15,3.32,5.39-8.97-2.25Zm33.53,1.35l-4.05-2.28,6.57-2.24-2.52,4.52Zm15.17-7.08l1.33,3.73,.08,.22-5.36,1.13,.6-.77,3.35-4.3Zm.25-.1l6.14,1.23-4.73,2.72-1.4-3.95Zm14.71,15.73l-4.18,.83,1.63-4.79,1.95,3.03,.6,.93Zm-4.86,23.9l3.51-4.15,1.09,4.78-4.6-.63Zm3.4,28.15l-3.22,3.51-2.36-3.48,4-.03h1.58Zm-5.96,21.73l3.07-3.63,1.73,5.05-4.8-1.42Zm6.44,6.29l1.77,3.21-3.26,.51,1.49-3.72Zm-62.21-5.98l-5.9,3.88-2.21-5.91,3.69,.92,4.42,1.11Zm-79.94-3.54l-3.25-9.86,11.09,5.16,4.74,2.2-11.78,4.96-.81-2.46Zm-30.05-8.44l10.3-12.74,1.17,15.05-11.47-2.31Zm-72.6-23.77l.31-1.76,3.34,3.66,8.57,9.39-15.28,6.04,3.06-17.32Zm-121.97-26.6l28.76-2.66-9.08,11.36-11.64,14.57-2.37-6.85-5.68-16.42Zm7.81,23.41h-32.93l24.88-23.29,2.68,7.75,5.37,15.53Zm21.13-25.88l.18,3.15,1.28,22.72h-22.13l20.67-25.88Zm47.59,26.4l-10.18,.47,7.1-16.14,14.19,15.16-11.11,.51Zm87.08-36.36l-.31,1.56-2.4,12.15-13.04-5.08,15.75-8.63Zm106.56,5.95l-6.67-9.12,13.37,1.08-6.69,8.04Zm62.72-9.38l.47-6.55,4.09,2.3-4.56,4.25Zm21.7-7.47l4.75-2.73-1.5,5.94-2.71-2.67-.55-.54Zm4.49,19.63l3.15-2.3-.65,4.97-2.5-2.67Zm4.12,61.92l-3.08,3.63-2.14-4.88,5.22,1.24Zm-1.3,7.44l-.41,3.36-3.47-2.96,3.88-.4Zm.2-.33l-1.73-3.01,4.62,1.37-2.89,1.64Zm-143.04-30.78l1.91,13.87-15.67-11.06,13.77-2.81Zm-57.67,11.96l-3.82-2.69-8.92-6.27,13.71-4.88-.65,9.32-.31,4.51Zm-26.18-37.83l14.25,1.23-3.75,13.34-10.5-14.57Zm41.88-8.45l12.62-1.79,2.25,10.96,.1,.48-6.61-4.26-8.36-5.39Zm26.27-4.46l10.6-4.15,3.7,8.62-12.45-3.89-1.86-.58Zm39.78,4.88l-3.51,2.52-.81-1.33-5.06-8.29,13.88,3.87-4.5,3.23Zm20.15-16.07l6.66,9.1-9.3,2.36,.35-1.52,2.29-9.94Zm14.06,1.05l10.65,4.64-7.2,6.12-.5-1.56-2.95-9.2Zm32.67,2.4l8.79-2.65-1.11,6.71-3.12-1.65-4.56-2.41Zm28.22-5.46l.4,1.55-5.54,.22,4.52-4.21,.63,2.44Zm10.6-4.61l5.32-1.12-.67,1.71-.81,2.08-2.99-2.08-.85-.59Zm12.44,6.78l-.88,.2,1.71-3.03,2.74,2.02-3.57,.81Zm-.47,21.89l-.56,.76-.27-.6-2.12-4.76,5,1.8-2.05,2.79Zm-49.15,50.95l-6.67,4.5-.94-7.62,7.61,3.13Zm-18.42-3.23l3.19-2.29-.32,7.89-6.92-2.7,4.05-2.9Zm-47.05-7.58l5.95-7.04,5.83,11.9-12.66-3.82,.88-1.04Zm-23.99-11.46l6.84,1.76-7.81,11.28-1.89-13.78,2.86,.74Zm-11.62-6.05l2.98-4.4,5.42,9.44-13.71,2.8,5.31-7.84Zm-47.97-13.76l-.23,16.76-16.32-8.71,10.26-5,6.29-3.06Zm-14.19,21.59l-2.47-13.29,16.23,8.66-13.72,4.88-.05-.25Zm-2.44-13.79l3.75-13.33,12.69,5.32-5.08,2.47-11.37,5.53Zm3.93-13.54l10.99-8.05,1.68,13.36-12.67-5.32Zm26.97-9.36l15.17,9.79-12.74,13.97-2.43-23.76Zm2.17,23.83l-16.1-8.98,13.67-14.81,2.44,23.78Zm39.24-23.82l14.97-6.85-2.44,9.62-.08,.3h-.02l-12.43-3.07Zm32.98-3.22l8.95-.82-.26,.45-4.04,6.95-7.65-6.31,3-.27Zm48.67-2.65l-4.08-.69,2.29-7.35,5.5,8.67-3.71-.63Zm60.07,29.75l-1.43-2.45,2.5-.23,1.71-.15-1.76,4.57-1.01-1.74Zm-5.38,37.84l-3.14,3.52-4.01-4.54,7.14,1.01Zm-28.15-8.76h1.11l-.33,1.53-.99,4.48-5.92-6.08,6.13,.07Zm-11.94,2.92l5.34-2.89-.66,7.62-7.01-3.46,2.32-1.26Zm-93.09-7.79l7.8-11.26,4.95,7.9-12.74,3.36Zm9.56-45l2.5-9.83,5.84,9.56-8.34,.27Zm107.84-19.05l.54,.36,2.88,1.95-4.02,1.4-1.09,.38,.3-.73,1.39-3.37Zm-20.64,68.14l1.51,.6-7.69,4.17-1.1-7.64,7.28,2.87Zm-54.91-10.83l-5.08,9.8-5.82-11.88,10.9,2.08Zm-70.76-31.43l15.73,.94-5.19,10.21-.62,1.22-6.85-8.55-3.07-3.83Zm81.39-7.74l6.7-5.7,2.04,12.09-4.9-3.58-3.84-2.8Zm54.98-9.2l-2.64,1.98-.61-6.66,5.59,2.92-2.34,1.76Zm28.53,63.34l-4.64,.78,1.45-3.51,3.18,2.73Zm-3.44-2.8l-.78,1.88-.67,1.63-2.9-3.23,3.76-.24,.59-.04Zm-1.62,3.72l-5,2.99,2.04-6.29,.82,.91,2.14,2.38Zm-19.55-8.67l.18,7.12-5.02-2.87,4.85-4.25Zm-59.49-46.24h.18l-2.58,7.46-5.47-7.03,7.87-.43Zm47-3.15l5.71-3.75,.75,6.05-6.46-2.3Zm16.7-5.73v-4.84l4.08,2.83-2.84,1.4-1.24,.61Zm3.44-2.77l-3.27-2.28,5.17-1.8-1.08,4.64-.81-.57Zm2.34,.19l-1.26,.4,1.08-4.63,3.69,3.12-3.51,1.12Zm3.98-1.21l2.04-5.31,2.94,4.92-1.13,.09-3.85,.3Zm2.38,.08l2.59-.2-1.68,2.98-.65,1.15-.17-.25-2.43-3.49,2.34-.18Zm6.47,29.01l2.41,2.44-3.32,.08-1.86,.05,2.37-2.19,.41-.38Zm-.98,20.05l-3.47-3.18,3.68-.83v4.22l-.22-.21Zm-5.52,14.81l-1.46,.39-3.48,.92,1.63-5.27,1.61,1.93,1.7,2.03Zm-38.52-4.73l-6.44-3.13,5.84-4.84,.3,4,.3,3.96Zm-62.18-20.3l-7.19,8.09-3.22-11.72,4.48,1.56,5.93,2.07Zm44.89-21.73l4.69-5.42,.48,5.58,.38,4.42-3.27-2.7-2.27-1.88Zm38.81-7.43l-5.06,2.08-.75-6.06,7.18,3.43-1.36,.56Zm-.42-7.97l5.01,2.29-2.86,4.81-2.15-7.1Zm20.52,7.7l-2.55-5.07,4.59,.35-2.04,4.72Zm-2.31,10.56l-4.09,3.85-1.92-4.24,6.01,.39Zm4.08,10.22l-1.33,1.23,.25-5.3,2.54,2.71-1.47,1.36Zm-5.58,25.85l-2.57,3.3-1.19-5.94,4.22,2.05-.45,.58Zm-28.39-45.13l.41,5.25-1.66-1.6-2.21-2.12,3.37-2.69,.09,1.16Zm.89,5.52l5.98-4.28,2.52,6.09-5.5-1.17-3-.64Zm17.32-11.13l2.27,2.02-6.4,1.6,2.84-4.78,1.3,1.16Zm11.89,14.28l-3.99-3.85,4.65-1.12-.14,1.07-.52,3.9Zm2.86,21.75l-2.08,4.22-2.7-4.32,4.78,.1Zm-104.19-2.76l-.07-9.66,10.35,4.34-3.78,1.95-6.51,3.36Zm82.8-24.52l-1.95,4.05-2.44-5.9,4.39,1.86Zm-60.38,29.52l-10.81-1.79,8.84-8.95,1.98,10.74Zm30.34-12.85l.02,.05-7.58-.07,4.99-8.38,2.57,8.41Zm32.52-21.3l6.9,3.77-4.23,3.03-1.13-2.89-1.54-3.92Zm9.38,9.76l-6.5-2.78,.86-.62,3.35-2.4,1.01,2.56,1.28,3.24Zm-3.39,35.84l.35-4.09,3.81,2.25-4.29,3.26,.12-1.42Zm-10.37-36.3l3.99,5.31,.18,.24-6.25,1.75,1.83-6.41,.25-.88Zm-20.08,12.79l-2.24-8,7.35,.55-5.11,7.45Zm30.5,19.1l-4.74,.69,2.57-5.42,2.17,4.73Zm-35.01-13.32l.25-.05,.22,6.37-6.88-5.05,6.4-1.27Zm-6.5,1.02l3.18-7.11,1.45,2.4,2.04,3.38-5.22,1.04-1.45,.29Zm7.24,5.35l-.22-6.4,1.96,.57,5.94,1.73-5.67,3.02-2.01,1.07Zm15.44-15.43l4.14,5.42-4.72,1.82-.46,.18,.31-2.19,.73-5.23Zm10.09,3.29l-.79,6.08-4.7-3.86,5.49-2.22Zm-.26,4.08l.53-4.07,5.33,3.37-6.12,2.74,.26-2.03Zm-4.7-4.58l1.08-4.53,3.83,4.77-5.5,2.23,.59-2.47Zm-6.42,4.5l-3.26-4.17,4.29-3.16-1.03,7.33Zm-.11,.29l-5.78,3.41,2.49-7.62,3.29,4.21Zm4.88,.75l.93-2.64,4.74,3.9-7.35,3.52,1.68-4.78Zm6.21,1.3l6.07-2.71-1.42,5.36-4.65-2.64Zm4.52,2.87l-4.31,4.32-.36-6.97,4.67,2.65Zm6.55-9.8l-.04,4.25-4.44-.37,4.48-3.88Zm-4.69,3.71l-.44-5.34,4.99,1.4-4.55,3.94Zm-.26,.02l-5.27-3.33,4.83-2.01,.21,2.58,.23,2.77Zm-22.49,2.17l-.77,2.35-4.06-7.27,6.58-.45-1.75,5.37Zm5.66-.92l5.15-1.99-2.57,7.32-2.33-4.82-.25-.52Zm10.3,2.14l.36,7.09-7.75-3.56,7.39-3.54Zm6.75-2.87l4.05,4.56-5.47,.79,1.42-5.36Zm.25-.11l4.43,.37-.47,4.09-3.31-3.72-.66-.74Zm-6.08-4.03l-3.84-4.78,6.22-1.74-2.38,6.52Zm-4.25-4.66l-1.68,7.02-2.75-3.6-1.4-1.83,3.68-1,2.15-.59Zm-6.14,1.3l-5.82-3.7,7.15-1.85-1.33,5.55Zm-5.95-3.47l5.8,3.69-.91,.67-3.42,2.53-.45-2.08-1.03-4.8Zm-5.61,7.83l4.05,7.25-.51-.15-7.38-2.16,.89-1.15,2.95-3.8Zm4.67,7.42l5.8-3.43,2.59,5.37-1.22-.28-7.18-1.66Zm18.84,6.09l4.67,.13-.25,.53-2.36,4.97-3.81-5.68,1.75,.05Zm4.67-.13l-6.36-.18,2.65-2.65,1.65-1.65,1.65,3.57,.42,.91Zm4.54-10.21l.04-4.24,4.52,4.57-4.55-.33Zm-.29-4.75l-4.15-1.16-.76-.21,3.8-2.5,.95,3.33,.15,.54Zm-5.41-1.39l-1.89,.79-2.93,1.22,.77-2.11,1.58-4.32,1.85,3.3,.62,1.11Zm-15.21-1.36l1.33-5.51,4.45,3.94-5.78,1.57Zm-6.48-3.45l.16,.75,1.33,6.19-6.55,.45,3.4-4.97,1.66-2.43Zm-9.01,12.08l-.39,.5-3.48-5.77,7.3,.85-3.43,4.43Zm5.96,8.94l-5.77-1.45,7.56-4.03-.51,1.57-1.28,3.91Zm2.05-5.42l3.85,7.36-5.65-1.86,1.8-5.49Zm8.72,1.82l-4.58,5.52-3.92-7.49,8.5,1.97Zm1.95,7.91l-1.54-7.76,7.76,3.56-.9,.61-5.32,3.59Zm15.77,.89l-1.28-2.78-.9-1.96,3.17,.55,2.58,.45-3.57,3.75Zm-4.44-9.66l5.45-.79-3.39,5.26-2.06-4.47Zm11.13-5.44l-4.61-4.66,4.62-1.38v6.05Zm-6.39-8.96l-3.84,2.53-2.46-4.39,2.7,.8,3.6,1.06Zm-6.35-2.33l2.42-7.32,2.6,5.02-5.02,2.29Zm-19.01-.38l5.27-6.94,1.89,5.09-7.15,1.85Zm-13.74,7.33l-3.2,7.16-4.35-7.23,7.46,.07h.09Zm-8-.1l-4.72,8.56-3.97-9.72,8.69,1.16Zm.21,.16l4.39,7.29-9.09,1.25,4.7-8.54Zm-3.5-6.78l3.26,6.35-8.59-1.15,5.33-5.2Zm-5.65,5.55l3.97,9.71-9.55-3.35,4.16-4.74,1.42-1.62Zm13.86,8.87l3.97,2.91,2.97,2.18-7.69,2.3,.67-6.56,.08-.83Zm4.75,10.92l-5.33-3.29,.11-.03,7.48-2.24-.08,.2-2.18,5.37Zm8.53-4.11l-1.55,4.71-.12,.36-4.09-6.53,5.76,1.45Zm19.12,.12l-1.12,6.51-1.66-.78-3.35-1.58,6.13-4.14Zm.26,.07l3.78,5.64-4.89,.83,1.11-6.47Zm7.84,5.32l1.19-.17-.48,5.54-4.28-4.85,3.57-.52Zm-.81-5.57l.02-.03,3.41-5.29,2.39,6.32-5.82-1Zm3.63-5.9l.47-4.09,4.55,.33-.87,.65-4.15,3.11Zm5.28-3.63l.73,4.98-5.86-1.14,5.13-3.85Zm-.27-6.81l-4.53,1.36-1.1-3.88,.17,.08,5.46,2.44Zm-6.04-2.95l-5.38-1.59-.92-.27,4.97-2.27,1.12,3.48,.21,.66Zm.73-12.71l4.2,2.24-1.97,3.42-2.23-5.66Zm2.95,1.27l-2.95-1.57,4.89-3.56-.6,5.84-1.33-.71Zm-12.59-.57l4.49,2.24-1.77,.5-4.67,1.32,1.95-4.05Zm4.65,2.47l-.09,.27-2.37,7.16-3.9-5.19-.27-.37,.88-.25,5.75-1.62Zm-9.14,9.33l-4.5-3.98,6.58-3.31-2.08,7.29Zm-17.86-2.57l-2.03-.15,5.18-6.31,2.14,6.86-5.28-.4Zm-2.35,.26l2.24,8-7.38-.85,2.23-3.1,2.91-4.05Zm-22.39,5.69l-1.71-9.93,7.07,4.71-5.35,5.23Zm-.31,.32l-5.45,6.22-.09,.1-1.58-9.21,1.55,.63,5.57,2.25Zm-7.39-2.85l1.59,9.27-9.05-3.56,5.69-4.36,1.77-1.35Zm-7.55,5.95l9.08,3.57-7.11,7.12-1.97-10.69Zm18.85,7.01l.19,.07-7.02,5.21-2.51-8.55,9.34,3.28Zm.35,.27l.65,9.41-7.66-4.21,7.01-5.2Zm.45-.16l9.06-1.25-.5,4.93-.25,2.49-3.88-2.88-4.43-3.29Zm13.88,9.95l-6.05,3.73,.7-7.04,5.35,3.31Zm7.37,.64l1.6-4.87,5.04,1.66,.59,.2-7.3,3.22,.06-.2Zm7.82-3.1l4.23-5.1,.31-.38,1.53,7.7-.91-.33-5.16-1.89Zm26.09,5.54l-3.81-2.24,3.55-3.72,.14,3.16,.12,2.81Zm7.4-16.04l-3.67,3.91-.36-2.46-.36-2.46,1.43,.33,2.96,.68Zm.54-5.13l-.36,.27-4.6,3.42v-6.07l3.98,1.92,.99,.48Zm-11.22-5.57l-.48-1.5-.85-2.62,5.72,1.99-4.39,2.12Zm-1.48-4.51l-2.58-4.98,6.42,2.75-2.72,1.58-1.12,.65Zm5.57-17.02l4.08-.33-2.65,4.66-1.43-4.33Zm1.12,4.7l-4.9,3.57-.25-3.19-.17-2.16,3.4,1.14,1.92,.64Zm-5.58-1.81l.42,5.39-5.04-2.75-1.85-1.01,6.48-1.62Zm-6.84,1.93l1.56,3.98,1.06,2.7-4.49-2.24,.84-2,1.03-2.44Zm-6.76,10.09l-4.37,2.2-.74-2-1.14-3.09,8.44,1.8-2.18,1.1Zm-6.78-3.2l-2.61,.05-4.68,.09,3.4-3.9,3.9,3.75Zm.05,.26l-5.32,7.01-2.14-6.86,3.4-.07,4.06-.08Zm-13.06,6.41l-1.53-8.39,6.72,2.07-5.19,6.32Zm-.31,.4l-.48,.66-4.68,6.5-2.59-8.46,7.74,1.29Zm-13.19,7.11l-3.27-6.37,8.25-1.99-4.98,8.36Zm-9.29-1.16l-7.13-2.89,5.42-7.07,1.05,6.08,.67,3.87Zm-13.41-8.78l5.87,5.94-1.57,1.2-5.87,4.49,1.02-7.53,.56-4.1Zm-2.05,11.82l-9.49,.65,.61-9.72,8.88,9.07Zm-9.49,.92l9.45-.65-8.75,8.86-.02-.27-.68-7.94Zm29.44,6.71l6.08,4.52,2.25,1.68-7.69,3.23-.65-9.43Zm14.21,9.99l.28,2.68,.32,3.12-6.64-2.08,6.04-3.72Zm.3-.33l2.26-5.57,4.13,6.58-.55-.09-5.83-.92Zm14.42-2.09l.72,7.37-8.18-4.08,7.46-3.29Zm.27,0l5.78,2.12,.29,.1-5.36,5.09-.13-1.33-.58-5.98Zm6.51,2.41l4.98,2.35-3.28,4.18-.96-3.7-.74-2.83Zm5.38,2.4l.12-.02,4.77-.81-2.02,6.58h0l-2.87-5.75Zm5.14-.73l.35,.4,4,4.53-6.39,1.71,2.04-6.64Zm10.39,7.69l-5.55-2.71,4.19-3.19,.15-.11,1.04,5.17,.17,.84Zm-1.37-13.06l-.35-.92-2.04-5.4,2.55,.49,3.36,.65-2.92,4.29-.61,.89Zm4.04-5.4l3.65-3.89,1.11,3.99-3.78-.08-.98-.02Zm3.6-4.31l-4.33-1h-.05l4.88-3.63-.09,.87-.4,3.76Zm.53-5.12l-4.94-2.38,5.2-3.11v.29l-.26,5.2Zm-5.42-2.61l-5.7-2.55,4.41-2.14,.78,2.82,.51,1.86Zm-7.16-7.09l3.81-2.21,1.9,4.2-5.71-1.99Zm10.88-7.47l-4.68,1.12,.6-5.84,.9,1.05,3.17,3.67Zm-3.96-5.16l1.95-3.43,.74-1.31,2.57,5.11-5.27-.37Zm-1.87-4.45l1.44,4.36-3.98-1.33-1.27-.43,1.61-1.1,2.2-1.5Zm-45.59,17.15l6.21-7.14,1.54,8.43-7.74-1.29Zm-8.76,2.01l2.66-6.56,5.55,4.58-8.21,1.98Zm2.39-6.6l-2.67,6.59-7.05-4.7,9.73-1.89Zm-15.79,9.07l-5.86-5.93,11.29-1.15-5.43,7.08Zm-6.3-5.86l-1.6,11.76-8.94-9.12,9.21-2.3,1.32-.33Zm-13.6,13.99l2.05-1.06,.26,3.02,.45,5.22-10.95-2.94,8.2-4.24Zm10.42,8.74l3.46,.57-.49,.48-7.07,6.97-3.22-9.24,7.32,1.21Zm4.01,.39l3.81-3.82,3.27-3.28,2.52,8.56-.36-.06-9.24-1.41Zm17.58,6.06l-3.58,2.36-2.82,1.86-1.22-8.41,7.63,4.2Zm8.17-3.19l-.7,7.09-6.91-3.89,7.62-3.2Zm21.62,8.64l5.36-5.09,.22,.85,1.51,5.78-7.09-1.54Zm10.79-2.56l2.73,5.47,.14,.29-6.16-1.56,3.29-4.19Zm9.8,4.31l-.55,5.4-5.81-3.7,6.35-1.7Zm.26,.02l5.56,2.71-6.1,2.68,.55-5.39Zm4.69-3.97l-.26-6.04,4.9,3.87-4.64,2.16Zm8.9-11.92l1.01-1.26,2.29-2.87,1.01,3.73-4.31,.4Zm1.84-2.73l-2.08,2.61-1.1-3.98,4.42-.17-1.23,1.54Zm-1.64-1.69l-1.57,.06,.49-4.63,3.95,4.45-2.87,.11Zm-6.43-7.66l-1.3-4.72,6.49,1.62-5.2,3.11Zm.97-9.36l-4.32-.28,1.99-3.45,1.44,1.39,2.53,2.45-1.64-.11Zm.98-15.53l-4.07,.32,1.49-4.03h0l2.57,3.71Zm-4.32,.26l-3.23-2.54,4.72-1.5-1.49,4.04Zm-.16,.21l-3.78,2.58,.47-4.37,.08-.76,2.57,2.02,.66,.52Zm-11.15,4.84l-1.87,4.43-4.4-1.86,1.07-.44,5.21-2.14Zm-12.86,6.88l-.51-6.57,6.48,2.31-5.96,4.27Zm-4.52-3.82l-3.38,3.88-.24-7.56,2.34,2.37,1.29,1.31Zm-5.86,3.36l-4.49-1.38,6.46-5.7,.25,7.77-2.22-.68Zm-17.38,1.24l-9.78,1.9,6.64-8.89,3.14,6.99Zm-22.19,3.23l-10.47,2.61,4.95-9.72,.44,.56,5.08,6.54Zm-10.87,3.03l-.56,8.91-.05,.84-10.36-4.34,8.37-4.13,2.6-1.28Zm-22.54-.43l10.98,5.86-10.38,6.07-.4-7.75-.21-4.17Zm.8,12.12l1.92-1.12,8.4-4.91,.07,9.66-8.94-3.12-1.44-.5Zm21.72,6.96l-7.65,7.18-3.34-10.14,11,2.96Zm11.7,1.96l7.15,1.09,2.46,.38-7.18,7.45-1.6-5.87-.83-3.04Zm17.81,6.05l.09,8.64-6.48-4.43,6.39-4.21Zm14.28,6.16l-6.95,5.29,.25-7.39,6.69,2.1Zm.39-.31l-.6-5.79,6.38,1.01-5.28,4.38-.5,.41Zm6.84,3.37l-.6-8.02,8.2,4.09-6.03,3.11-1.56,.81Zm8.05-3.75l7.11,1.54-5.92,5.8-1.19-7.35Zm13.75,3.22l-4.84,4.25-1.34-5.82,6.19,1.57Zm12.88,1.26l-1.64,5.29-4.43-2.62,6.07-2.67Zm3.53-4.28l3.72,3.44-6.75,.45,3.03-3.89Zm-2.75-1.67l-1.57-.76,4.55-2.12-.37,4.16-2.62-1.27Zm-1.83-7.2l6.22-.76-1.33,4.63-4.89-3.87Zm5.2-.9l-5.26,.64,3.5-5.15,.5,.8,2.24,3.58-.98,.12Zm1.44-.2l2.04-4.13,1.62,3.3-1.48,.34-2.18,.49Zm7.02-13.9l-1.39,4.63-3.98-4.5,5.37-.13Zm-2.52-3.07l-2.54-2.71,5.6,.3-3.06,2.41Zm-5.27-9.03l.41-3.08,.25-1.87,3.85,2.58-4.51,2.38Zm.5-5.46l-4.05-4.69,5.23,.37-1.07,3.93-.11,.39Zm1.61-4.7l1.95-4.52,1.05,3.17-3.01,1.34Zm-11.27-7.5l-.49,4.61-.06,.55-3.53-3.15,.88-.43,3.2-1.57Zm-24.85,10.29l-3.59-3.65,6.94,.97-3.35,2.67Zm-11.03,2.27l-3.32,3.82-2.89,3.33-.67-7.75-.2-2.35,1.8,.75,5.29,2.2Zm-12.18,2.37l-3.11-6.93,7.81,1.5-4.69,5.43Zm-21.99,3.3l2.6-7.53,8.71,6.37-11.32,1.16Zm-10.04,.44l-1.09,2.14-3.22-7.26-.69-1.55,8.85-.89-3.85,7.55Zm-1.46,2.48l-2.87,1.41-8.08,3.98-.13-8.79h.03l11.05,3.39Zm-33.41,10.79l-4.33-11.01,14.95-.12-.69,.72-9.93,10.4Zm11.51,1.42l3.23,11.76-11.51-.33,8.28-11.43Zm10.84,3.74l3.34,10.13-10.52-2.06,7.18-8.08Zm11.46,3.06l3.22,9.24-10.86-2.07,7.64-7.17Zm3.7,9.32l7.54-7.44,.22,.82,2.21,8.1-2.35-.35-7.63-1.13Zm10.44,1.54l7.14-7.42,.41,2.83,.82,5.61-3.59-.44-4.78-.59Zm15.51,5.61l-.09-8.66,2.87,1.62,4.07,2.3-5.48,3.8-1.37,.95Zm28.94-3.14l1.2,7.38-8.78-3.46,7.59-3.92Zm14.6,10.53l-.18-7.16,1.5,.96,4.35,2.77-.68,.41-4.99,3.02Zm16.09-2.22l-2.75-3.29-.58-.69,6.8-.46-3.47,4.43Zm1.59-6.77l-1.61-1.49,3.74-.95-.08,4.34-2.04-1.89Zm-1.14-6.84l1.17-4.07,3.76,3.45-5.08,1.14,.15-.52Zm5.21-5.49l-1.63-3.32,4.3-.4-.59,.82-2.08,2.9Zm2.25-6.93l-.26-.96,3.76-.38-2.75,4.08-.74-2.74Zm-1.43-8.85l3.06-2.41-.64,4.87-2.42-2.46Zm-3.27-3.25l-6.14-1.53-.39-.1,2.61-2.46,1.52-1.43,2.06,4.75,.33,.77Zm2.21-4.49l1.65,.41-3.6,4.03-2.39-5.5,4.33,1.07Zm.57-.13l-4.76-1.17,4.49-2.37,1.39,3.81-1.12-.27Zm-.26-3.92l-1.79-1.2-2.09-1.4,6.12-2.54-2.25,5.14Zm-3.95-2.85l.59-2.16,.59-2.15,4.91,1.79-2.81,1.17-3.28,1.36Zm4.46-5.85l1.11,1.99,.6,1.08-4.73-1.72,3.02-1.35Zm-1.37-3.94l-2.22-.17-2.35-.18,1.74-3.09,.58-1.03,1.16,2.31,1.09,2.17Zm-22.81-2.73l2.18,7.2-6.07-2.9-1.12-.54,1.71-1.28,3.3-2.48Zm-25.76,12.52l-1.2-6.68-.38-2.11,8.08,3.05-6.51,5.75Zm-.26,.04l-7.06-2.93,5.49-5.82,1.57,8.75Zm-22.47,4.55l-2.04-12.11,8.73,3.16-6.69,8.96Zm-17.49-6.03l4.7-8.83,3.38,8.39-8.08,.44Zm-9.55,1.29l3.91,8.81-1.3-.4-9.75-2.98,5.3-4.03,1.84-1.4Zm-7.56,5.65l.13,8.79-10.91-5.82,6.75-1.86,4.03-1.11Zm-4.7,1.02l-6.25,1.72,2.27-9.01,8.5,6.04-4.53,1.25Zm-6.68,1.78l-14.88,.11,8.75-8.91,5.4,7.75,.73,1.04Zm-28.27-1.34l12.84,1.69-7.93,11.35-4.91-13.04Zm-.22,.17l2.79,7.42,2.1,5.57-10.67-1.62,.57-1.13,5.21-10.24Zm13.26,1.7l4.32,10.97-12.22,.34,7.91-11.31Zm4.8,10.99l10.57-11.07,.61,11.92-3.98-.3-7.2-.54Zm11.07,1.1l-8.28,11.43-2.92-12.27,11.19,.85Zm3.32,12.21l-6.49,7.53-4.92-7.86,11.41,.33Zm27.49,12.47l-4.65-8.12,3,.45,6.94,1.03-3.53,4.43-1.76,2.21Zm5.77-6.58l8.4,1.03-3.36,9.27-4.59-9.37-.45-.93Zm8.65,1.12l2.94,2.01,3.58,2.45-9.88,4.79,3.35-9.25Zm9.83,2.53l4.05-2.8-.25,7.39-6.56-2.67,2.76-1.91Zm4.2,4.73l6.96-5.3-.05,7.61-4.4-1.47-2.51-.84Zm29.4-4.49l1.35,5.85-7.24-.09,5.89-5.77Zm13.41,11.33l-.31-5.68,1.12,.66,3.29,1.95-2.72,2.03-1.39,1.04Zm4.55-3l4.97-1.32-.66,2.03-1.39,4.3-1.71-2.93-1.21-2.08Zm8.34,2.26l2.12,4-7.12-1.01,5-2.99Zm.25-.09l4.7-.79-2.6,4.77-.09-.16-2.02-3.81Zm-3.13-3.84l2.86-3.65,.55-.7,.98,4.06-4.38,.28Zm3.3-9.52l-3.73,.95,.08-.95,.28-3.17,1.33,1.25,2.04,1.92Zm2.2-5.22v-4.03l4.32,.21-4.32,4.04v-.22Zm4.44-4.08l-4.33-.21,.03-.04,2.65-3.71,.6,1.43,1.05,2.52Zm-1.08-13.54l.04-.31,.61-4.67,3.56,4.6-4.22,.38Zm-3.16-14.04l4.58,.24-3.2,3.56-.87-2.37-.52-1.42Zm-.68-12.61l3.9,1.41-2.84,1.79-1.06-3.2Zm-1.64-3.36l-.81-1.61,5.62,.56-3.35,3.96-1.45-2.9Zm4.83-1.32l-3.98-.39-1.66-.17,.15-.24,2.65-4.23,1.38,2.43,1.47,2.59Zm-2.61-5.14l4.68,.17-1.86,4.83-1.07-1.89-1.76-3.1Zm2.63-4.65l2.03,4.55-4.67-.17,1.84-3.06,.8-1.33Zm-3.09,4.63l-2.79,4.47-2.94-4.93h.12l5.61,.46Zm-8.25,4.92l-3.72-3.14,5.76-2.16-2.04,5.31Zm-9.75-1v4.88l-4.99-2.27,2.4-1.25,2.6-1.36Zm-5.39,2.41l-5.61-2.93,6.76-3.73-1.15,6.66Zm-5.53,4.24l-5.75,3.78-2.13-6.89,7.88,3.11Zm-6.98,3.69l-6.21-.87,5.05-5.89,2.13,6.9-.97-.14Zm-20.97,2l-7.82-1.5,5.53-5.62,2.26,7.03,.03,.09Zm-8.26-1.62l-8.68-3.14,7.16-6.08,1.52,9.22Zm-29.2-3.24l4.51,6.47-8.79,.88,2.79-4.8,1.49-2.55Zm-11.88,12.94l-.51-11.75,7.66,6.32-7.15,5.43Zm-9.18-5.91l-2.26,8.96-4.22-6.06-1.83-2.63,2.52-.08,5.8-.19Zm-30.67,7.55l9.09-10.33,3.73,12.02-12.82-1.69Zm-16.62,15.73l.25-16.24,6.55,8.17,3.34,4.17-.51,.2-9.63,3.7Zm10.26-3.66l2.39,13.86-12.52-9.97,10.13-3.89Zm23.59,1.29l-6.79,9.75-5.4-9.41,12.19-.34Zm15.43,13.11l10.52,2.06-6.79,8.04-2-5.41-1.73-4.69Zm22.11,4.41l4.67,8.15-9.72,1.59,5.05-9.74Zm5.1,8.18l1.79-2.25,3.52-4.42,1.41,2.87,3.65,7.44-2.46-.87-7.9-2.79Zm20.85-.93l-.66,7.92-9.21-3.13,1.55-.75,8.32-4.04Zm14.57,4.81l.05-7.6,6.44,3.13-5.47,3.77-1.02,.7Zm6.57-4.21l.08-.06,1.1,7.61-7.61-3.12,6.43-4.43Zm22.28,6.53l-6.33,3.09,1.32-5.95,5.01,2.86Zm.58-.02l5.63-3.41,.31,5.75-5.94-2.35Zm6.38,2.49l4.13-3.09,1.63,2.8,1.29,2.21-6.08-1.66-.97-.27Zm14.59-5.01l3.62-2.5-.41,5.25-3.21-2.75Zm-1.16-4.79l.08-4.36,4.23,.67-.22,.18-4.1,3.5Zm-.1-4.75l-.65-.62-2.76-2.6,2.86-.64,2.2-.49-1.65,4.35Zm6.1-10.59l-1.11-2.67,3.93-.61-2.29,4.56-.53-1.28Zm2.88-3.56l-3.9,.61,2.75-4.08,1.13,3.42,.02,.05Zm-1.32-3.88l-3.8,.38,1.37-4.55,.18,.31,2.25,3.86Zm-1.97-10.1l-5.77-.31,2.2-2.47,1.36-1.53,.48,.94,1.72,3.36Zm1.15-8.61l-4.65-.24,2.06-4.7,.19-.43,.21,.47,2.19,4.9Zm-4.17-9.14l2.83-1.78-1.11,4.86-1.71-3.08Zm-1.16-3.72l3.33-3.93,.7,5.39-4.03-1.46Zm3.47-14.25l3.71,1.4-1.72,3.05-1.98-4.45Zm-1.75,2.01l-1.38,2.29-1.94-3.48-.15-.27,4.71-.61-1.25,2.08Zm-3.71-1.36l2.09,3.76-2.92-.23-2.74-.22,.67-.62,2.9-2.68Zm-9.99,5.56l.28-5.13,5.51,2.96-5.79,2.17Zm-.26-.05l-3.42-2.32,3.7-2.71-.27,5.03Zm-5.74,2.17l-5.03,2.63,1.14-6.59,3.89,3.97h0Zm-10.87,4.78l.17,1.89-7.89-3.12,7.28-3.61,.44,4.84Zm-13.35,4.77l-2.15-8.23-.47-1.79,7.72,4.08-5.1,5.94Zm-.26,.06l-8.1-3.05,5.47-7,1,3.81,1.63,6.24Zm-8.58-2.9l-5.47,5.81-1.34-4.17-.95-2.96,5.1,.86,2.67,.45Zm-13.73,4.2l-1.51-9.16,7.05,3.52-5.55,5.64Zm-16.15,2.73l-2.76-6.83-.63-1.57,10.07,2.72-6.68,5.68Zm-8.36,.04l-.21,.39-3.94-5.65-.59-.84,9.23-2.34-4.49,8.44Zm-34.82,1.3l-8.77,8.93-2.54-8.17-1.19-3.83,9.24,2.27,3.26,.8Zm-36.86,6.41l-1.22-.07,10.41-13.99,5.38,14.94-14.56-.87Zm11.31,26.83l-2.39-13.86,10.69,1.63-3.51,5.17-4.78,7.06Zm14.35-2.63l6.7-9.62,.08-.12,.89,3.77,2.01,8.47-4.24-1.09-5.45-1.4Zm21.75,3.28l3.72,10.09-10.22-2.55,6.5-7.54Zm47.92,19.41l.37-4.47,.28-3.38,6.57,2.67-3.41,2.45-3.82,2.74Zm7.63-5.03l6.91,2.32-7.23,5.57,.32-7.88Zm36.35,4.55v.13l.52,5.91-6.89-2.94,6.37-3.11Zm.52,2.95l-.26-2.96,.05,.02,5.9,2.33-5.43,3.67-.26-3.06Zm6.28-.42l6.96,1.9-6.19,3.36-.91-5.3,.14,.04Zm17.85,6.67l-2.53-3.57,3.33,.06,1.36,.02-.18,.3-1.98,3.2Zm.22-14.68l-3.61,2.5-.36-1.5-.62-2.56,.73,.25,3.86,1.32Zm-4.51-1.82l3.65-3.12,.73-.62,.28,5.33-4.66-1.59Zm4.26-4.19l-4.24-.67,1.64-4.34,1.72,3.31,.89,1.71Zm2.59-4.72l-2.35,4.61-2.63-5.07,4.98,.46Zm-4.9-.72l4.37-4.08,.59,4.54-4.96-.46Zm5.89-13.18l3.55-.72-2.41,4.18-1.14-3.46Zm1.73-5.39l-3.58-4.62,5.25,.33-1.67,4.29Zm-3.84-5.01l-1.69-3.31-.5-.98,5.44,.62-3.24,3.67Zm3.28-3.94l-5.44-.62,.83-.92,2.41-2.68,.74,1.42,1.46,2.79Zm-4.58-10.57l.2-.87,.94-4.09,2.51,2.68-3.65,2.28Zm4.36-7.8l-3.2,2.34-.69-5.36,3.89,3.02Zm-3.83-3.58l1.82-4.74,2.95,3.77-4.81,1.04,.03-.07Zm3.59-8.61l-3.7-1.39,3.86-1.99v.2l-.16,3.18Zm-9-.86l.92-2.34,.56-1.43,3.21,3.16-4.69,.61Zm-.42,.18l-3.59,3.32-.29-6.01,3.88,2.69Zm-13.93,3.54l-1.71,4.15-2.44-2.49-1.41-1.44,4.28-.17,1.28-.05Zm-90.78,13.23l.51,11.78-8.52-6.05,1.16-.83,6.84-4.91Zm-30.15,2.9l-2.6,2.96-6.52,7.41-5.36-14.9,13.18,4.12,1.31,.41Zm-25.34,9.34l-2.36-11.46,12.68-2.42-10.32,13.88Zm-31.6-8.34l-10.99,8.05-2.02-13.11,13.02,5.06Zm-15.21,21.92l-23.04,.98,12.46-15.67,3.21,4.45,7.38,10.24Zm-23.03,1.25l23-.98-1.32,1.67-9.77,12.37-9.59-10.51-2.33-2.55Zm12.21,13.12l9.29-11.77,1.71-2.17,2.51,13.53-7.23,.22-6.28,.19Zm27.95-5.53l.23-16.76,3.72,2.07,12.33,6.88-15.57,7.47-.72,.34Zm16.42-7.58l-1.73,22.33-14.6-14.5,16.33-7.83Zm.41-.3l10.73-11.77,1.92-2.11-.25,16.29-4.21-.82-8.18-1.6Zm12.64,2.84l12.46,9.92,.05,.04-13.16,.62,.65-10.57Zm29.42,21.52l12.78-3.37,3.01,10.71-15.79-7.34Zm43.09,2.18l3.64-.6-.07,8.35-9.62-6.76,6.06-.99Zm3.83,7.8l.07-8.37,10.36,3.65-3.91,1.77-6.52,2.95Zm20.19-1.39l-5.81,4.67-3.36-7.79,9.17,3.12Zm15.14-2.84l.94,7.64-8.2-2.05,7.25-5.59Zm15.84,5.08l.53-6.12,5.94,6.11-6.6,1.48,.13-1.47Zm27.59,1.61l2.72,3.08,1.28,1.45-5.56,.02,1.56-4.55Zm7.68,1.05l2.55,3.6-5.65-.12,3.1-3.48Zm5.19,.13l1.75,3.04-3.88,.4,2.13-3.45Zm-.2-.39l-4.76-.08,2.61-4.8,.37,.83,1.78,4.04Zm-1.81-5.24l4.38-3.04,.82,4.28h-.05l-5.15-1.24Zm.91-.95l-1.07,.75,.04-.45,.38-4.85,3.98,2.25-3.31,2.3Zm-.76-10.5l4.66-1.08-.67,3.76-3.98-2.69Zm-.08-.25l2.01-3.93,.32-.62,2.36,3.47-4.69,1.08Zm5.43-8.12l-3.03,3.02-.58-4.47,3.61,1.45Zm.48-3.5l-3.98,1.59,2.27-4.52,1.71,2.93Zm-2.79-7.26l1.74-4.52,1.84,3.79-3.58,.73Zm-.9-9.94l-.99-.06,3.23-3.66,1.99,3.99-4.23-.27Zm2.3-4.19l-.99-1.89-1.23-2.34,5.74,.06-3.53,4.17Zm-2.17-4.49l1.52-2.07,1.08-1.46,3.09,3.6-4.12-.05-1.57-.02Zm1.08-4.43l-3.65-1.32,3.68-2.29,1.27,4.08-1.3-.47Zm-2.39-12.03l-.76-.59,4.77-1.03-.88,4.06-3.13-2.43Zm-10.78-12.54l.28,5.71-5.54-2.97,5.24-3.13,.02,.39Zm-10.53,1.29l2.53-4.54,2.26,5.81-4.79-1.27Zm4.7,1.52l-2.73,2-.96,.71-.19-.75-.83-3.21,4.18,1.11,.53,.14Zm-9.48-3.68l-.48,6.66-3.16-1.27-3.28-1.32,6.92-4.07Zm-.67,6.87l-6.76,3.73,.26-4.96,.07-1.36,2.57,1.04,3.86,1.55Zm-7.2,3.96l-5.22,2.59-2.03,1.01,1.1-6.67,2.49,1.24,3.66,1.83Zm-15.8-.38l-1.19,1.53-4.3,5.5-5.55-8.76,11.04,1.73Zm-13.81,5.68l-2.46-1.23-4.58-2.29,9.33-3.83-2.29,7.35Zm-18.54-8.11l1.86,5.81,1.59,4.95-1.68-.45-8.46-2.29,2.43-2.92,4.25-5.11Zm-16.69,10.3l-6.9-6.9,9.54-4.56-2.64,11.45Zm-7.1-6.72l6.88,6.88-11.98,1.09,1.54-2.41,3.56-5.57Zm-90.45,25.76l-1.68-13.39,5.22-.44,10.02-.85-13.55,14.69Zm-38.99,7.28l-1.59,1.99-5.22-21.44,17.68,5.77-10.87,13.68Zm-18.54-5.03l-4.11,17.55-.62,2.64-12.42-13.82,.37-.14,16.78-6.23Zm-62.24,11.1l4.55,1.69-17.11,18.98,.17-25.27,12.39,4.6Zm5.45,1.29l-.49,.15,4.98-21.47,12.9,16.17-17.39,5.15Zm-.77,.16l-16.92-6.28,21.91-15.19-4.98,21.47Zm18.18-5.04l-6.74,19.34-11.12-14.06,17.86-5.29Zm.47-.08l21.29-.98-9.59,16.27-11.7-15.29Zm-1.68-16.52h8.48l-7.1,16.14-5.71-7.16-7.18-9h11.5Zm-34.31,15.53l-.17,25.32-21.96-25.32h22.13Zm6.35,18.78l11.08-12.29,11.15,14.1-28.27,4.89,6.04-6.7Zm25.78-7.17l3.64-10.46,11.7,15.29-18.45,4.07,3.1-8.9Zm25.41-11.52l12.43,13.83-22.02,2.44,9.59-16.27Zm12.9,13.65l1.12-4.77,3.61-15.45,13.81,6.23,2.52,1.14-13.16,8.03-7.9,4.82Zm21.16-12.61l-3.38,19.14-17.67-6.29,21.05-12.85Zm12.72,13.24l13.5-.41-.16,2.55-.63,10.37-2.48-2.44-10.23-10.07Zm22.99,9.67l-10.03,2.95,.41-6.73,.38-6.2,6.65,4.67,6.08,4.27-3.49,1.03Zm3.93-1.11l.97-13.85,.33,.32,14.17,14.07-15.46-.55Zm17.92-21.95l1.81,.35,10.47,2.04-.64,10.27-.02,.26-2.77-3.08-8.85-9.85Zm25.11,12.77l-10.29,12.73-2.91-12.11,13.2-.62Zm.44,.12l15.72,11.09-14.54,4.02-1.18-15.11Zm32.47,18.49l-2.87-10.22-.12-.44,5.21,1.3,5.03,1.25-2.63,2.95-4.61,5.16Zm41.41-1.81l-3.3,9.04-7.1-4.33,10.4-4.71Zm-1.59,5.12l1.83-5.02,3.34,7.76-6.61,1.19,1.44-3.94Zm34.43-1.59l.02,.1,1.15,7.08-7.83-2.68,6.66-4.49Zm1.44,7.15l-.25-1.52-.92-5.63,6.97,3.44-4.32,2.75-1.48,.95Zm1.37-.56l4.61-2.94,1.23,7.16-7.04-3.46,1.2-.76Zm7.45-3.64l4.12-.92v5.65l-6.53-4.18,2.41-.54Zm4.39-.89l4.44,1.89,2.45,1.04-6.9,2.73v-5.66Zm12.97-.77l.9,5.28-6.31-1.63,5.41-3.65Zm1.42,5.42l6.06-3.29-1.31,3.84-.23,.66-3.24-.87-1.27-.34Zm25.51,3.49l-4.62,1.14,.41-3.39,3.2,1.71,1.02,.54Zm-7.93-16.98l3.73-2.57,.22,4.8-3.95-2.24Zm-.13-.23l-.28-5.29,4.02,2.71-2.59,1.78-1.15,.79Zm1.84-15.52l3.93-1.57-.38,2.99-3.54-1.43Zm2.41-5.19l2.31-4.01,.16-.27,2.18,4.16-3.12,.08-1.52,.04Zm.62-8.9l1.65-4.25,2.57,4.17-4.22,.07Zm-1.34-21.78l4.09-.64-2.82,4.71-1.27-4.07Zm.76-5.99l.84-3.86,3.35,3.56-4.23,.48,.04-.18Zm.72-4.41l-2.95-3.77,4.59-1.04-.04,.12-1.6,4.69Zm1.79-5.19l-2.76-2.03,4.37-1.55-1.61,3.59Zm-2.9-2.27l.16-3.4,4.23,1.84-4.39,1.56Zm4.53-1.79l-4.26-1.85,2.59-2.73,1.67,4.58Zm-6.9-5.85l5.03,1.1-2.59,2.73-2.44-3.83Zm2.23,3.99l-.95,.49-2.98,1.54,1.48-5.88,1.84,2.9,.61,.96Zm-29.09-.47l-6.92,4.06,.84-6.75,6.08,2.68Zm-7.23,4.54l-.33,6.31-2.66-1.33-3.47-1.74,5.91-2.97,.55-.28Zm-12.18-1.14l4.72-3.98,.55,8.08-5.27-4.1Zm5.13,4.34l-8.76,2.64,3.46-6.77,.09,.07,5.21,4.06Zm-5.54-4.24l-3.49,6.83-5.64-9.12,9.13,2.29Zm-3.74,6.92l-11.06-1.73,5.38-7.45,3.43,5.54,2.25,3.64Zm-21.03,2.22l-.26-10.44,9.72,6.56-9.46,3.88Zm-.27,0l-10.68-4.65,10.42-5.81,.26,10.46Zm-35.05-.93l-2.92,4.57-2.17,3.4-2.19-5.93-1.8-4.86,3.06,.95,6.03,1.87Zm-9.36-2.82l.52,1.4,3.51,9.49-5.33-1.49-8.63-2.41,8.93-6.29,1-.7Zm-10.51,7.03l-15.05,6.89,4.44-11.44,.77-1.98,3.02,2,6.82,4.52Zm-10.16-6.45l-5.14,13.24-3.69-8.6,3.3-1.73,5.53-2.91Zm-19.78,8.66l7.54-13.76,3.08,9.6-10.62,4.16Zm-42.08,5.81l2.24-11.33,.47-2.39,12.55,12.43-15.26,1.29Zm-13.71-4.81l.58,3.76,1.45,9.38-13.54-1.17-.71-.06,.17-.16,12.05-11.74Zm-30.67,6.4l5.22,21.41-16.3-7.35,9.55-12.11,1.54-1.95Zm-24.54-7.22l13.06,21.26-17.2,6.39,1.11-7.41,3.04-20.25Zm-61.58,27.62l-1.46-25.91,23.48,10.64-22.01,15.27Zm-30.91,23.66l-24.88-23.29h32.93l-5.36,15.5-2.69,7.79Zm134.78-8.73l.59,.58,12.22,12.02-13.8,8.31,.18-3.79,.82-17.12Zm29.39,21.53l-16.03-8.87,13.52-3.98,1.54,7.87,.97,4.98Zm13.21-12.33l-12.94,12.32-2.52-12.87,15.45,.55Zm.47-.38l1.72-22.27,7.51,8.36,4.28,4.76-8.47,5.73-5.04,3.41Zm43.29,1.86l-5.19,10.23-2.99,5.9-6.33-12.11,14.51-4.02Zm24.41-.84l12.65,3.82-8.63,7.16-.88-2.4-3.14-8.58Zm13.1,4.05l4.54,3.19,5.15,3.62-7.98,5.38-.28-1.98-1.43-10.21Zm17.16,11.38l-6.2,5.61-.88-9.92,7.08,4.32Zm14.7,4.39l-1.18-10.4,6.95,2.71-2.24,2.98-3.54,4.71Zm36.42-2.18l6.82-2.7-1.72,4.67-.14,.37-1.27-.6-3.69-1.74Zm.52,6.03l-.69-5.82,4.97,2.34-4.27,3.48Zm4.71-3.4l4.22-.51-2.49,4.55-1.73-4.04Zm4.25-.78l-4.25,.51,1.83-4.97,1.37,2.53,1.05,1.93Zm9.1-1.62l-3.52,4.98-1.05-6.21,4.57,1.23Zm.23,.14l.03,.03,2.94,3.35-6.48,1.59,3.51-4.97Zm.28-.08h1.9l3.57-.02-2.56,3.35-.62-.71-2.3-2.62Zm3.16,3.46l2.58-3.39,.8,1.09,2.72,3.7-4.87-1.12-1.24-.28Zm6.4,1.35l-3.55-4.82,3.45,.07,2.27,.05-.9,1.95-1.27,2.75Zm8.99-2.04l2.22-.55-1.52,3.79-3.13-2.64,2.42-.6Zm-1.98-3.24l2.92-1.66,1.27,3.9-4.19-2.24Zm1.2-7.63l-.81-4.23,4.1,1.03-2.53,2.47-.75,.74Zm-2.75-17.81l3.03-3.02,2.5,2.98-5.53,.04Zm3.2-3.43l.38-2.98,3.17,1.33-3.55,1.65Zm.3-3.39l-1.71-2.92,4.56-.12-1.15,1.23-1.7,1.82Zm3.13-3.54l-1.81-3.44-.32-.62,3.26,.16-.7,2.43-.43,1.47Zm-2.34-4.48l-1.85-3.81,1.84-.03,2.36-.04-1.54,2.55-.81,1.33Zm.01-8.73l1.11-1.44,1.41-1.83,.93,3.47-3.45-.2Zm-.23-.13l-1.98-3.96,4.55,.63-2.58,3.33Zm-1.5-12.5l4.3-.49-1.23,4.06-3.07-3.57Zm2.61-5.4l-4.12,.64,.57-4.33,.1-.73,2.65,3.38,.81,1.04Zm1.96-10.46l-2.46-3.81,3.18,.73-.54,2.31-.18,.77Zm-1.42-3.84l-1.13-.26,1.6-3.58,1.63,4.32-2.09-.48Zm-40.87-2.46l-2.24,1.12-4.29,2.15-.43-6.37-.12-1.79,7.08,4.89Zm-27.42,4.14l-1.43-9.26,6.76,1.89-5.32,7.37Zm-20.89-.7l1.27-8.34,9.06,2.58-10.33,5.76Zm-23.93,3.68l-1.66-9.54,11.19,4.98-9.54,4.56Zm-1.92-9.5l1.65,9.51-9.08-2.82,2.45-2.21,4.97-4.48Zm-17.86,13.75l-.17-11.62,10.08,4.64-9.91,6.98Zm-.61-11.81l-9.55,5.09,.51-9.01,9.04,3.92Zm.18,.21l.17,11.61-3.79-2.51-6-3.98,7.83-4.17,1.79-.95Zm-13.69,6.96l-5.36,2.82-1.92-5.98-1.16-3.62,11.94,4.93-3.5,1.84Zm-32.22-1.07l1.16,5.2,1.25,5.61-12.62,1.79,4.12-5.09,6.09-7.52Zm-23.78,0l-15.74,8.62,2.65-13.35,3.54,1.28,9.55,3.45Zm-28.68,20.97l-17.68-5.77,15.91-14.62,.7,8.04,1.08,12.35Zm-18.17-5.64l-11.12,14.1-13.05-21.25,24.17,7.15Zm-25.84,.92l-2.95,19.64-11.25-12.02-2.97-3.18,18.38-12.47-1.2,8.02Zm-62.07-6.53l-28.61,2.65,11.84-15.83,15.13,11.9,1.64,1.29Zm-54.04,26.17l-.88-28.46,25.75,5.17-24.87,23.28Zm-46.99-10.84l-13.75,10.89-4.26-30.64,34.21,6.93-16.2,12.83Zm-56.35-10.74l38.08-9.02,4.26,30.66-42.34-21.64Zm.42,38.71l-.66-38.54,34.75,17.76,7.69,3.93-9.77,3.94-32,12.91Zm102.93-16.54l24.87,23.28-25.75,5.17,.88-28.46Zm25.33,23.24l3.08-8.91,4.97-14.37,16.04,18.5,5.98,6.9-10.67-.75-19.4-1.36Zm30.76,2.34l25.03-4.33,3.17-.55-10.52,15.2-2.15-1.25-15.53-9.07Zm28.7-4.97l18.43-4.07-3.28,6.98-5.73,12.2-.16-.26-9.27-14.85Zm59.52-.27l15.31-6.05-.17,3.47-.83,17.47-9.66-10.05-4.65-4.84Zm30.48,15.55l-1.71-8.63,16.04,8.88-13.39,4.48-.94-4.73Zm28.11-12.08l10.05,12.69-11.25,4.87,1.2-17.56Zm16.95,2.96l11.47,2.31-7.69,13.67-.49-2.06-3.3-13.92Zm18.46,14.48l8.15-16.06,4.06,12.32-6.33,1.94-5.88,1.8Zm24.81-8.86l7.26-8.12,4.01,10.96-1.17-.3-10.1-2.54Zm37.96,7.44l2.97,6.05-9.13-.48,4.48-4.06,1.68-1.52Zm3.19,5.9l-2.95-6.02,6.57-1.19-.5,.99-3.12,6.21Zm8.72-3.24l2.2,1.8-10.69,1.58,3.67-7.3,4.82,3.93Zm-4.65-4.14l5.82-4.68,1.18,10.39-.1-.08-6.9-5.63Zm7.49,5.82l3.11-4.14,2.61-3.48,2.14,5.72,.08,.2-3.3,.7-4.64,.99Zm7.98-1.43l-.04,6-7.88-4.31,3.21-.68,4.72-1.01Zm6.34-4.08l1.97,8.13-7.92-4.22,5.95-3.91Zm2.24,8.13l-1.97-8.14,5.18,1.78,2.67,.92-1.49,1.38-4.39,4.07Zm24.62-2.21l1.75,4.08-5.99-.63,4.24-3.45Zm4.75-.97l-.21-.39-2.22-4.1,6.24,1.61-1.98,1.49-1.83,1.38Zm12.07,2.26l-1.53,4.32-4.94-2.73,6.47-1.58Zm-1.12,3.97l1.36-3.84,2.01,3.43,.44,.75-3.95,.07,.14-.4Zm1.6-3.96l4.33,.99,1.76,.4-3.62,2.83-1.45-2.48-1.03-1.75Zm6.63,1.12l.73-1.57,1.43-3.1,3.58,3.04-.47,.13-5.27,1.49Zm11.42-2.64l4.4,.96-2.62,2.26-1.78-3.22Zm-2.82-9.87l-.51-.24,3.28-3.2,.24,4.83-3.01-1.39Zm1.9-7.85l5.27,.49-4.21,3.39-1.06-3.88Zm-.4-.13l-3.02,2.81-.22-4.75,.81,.49,2.43,1.45Zm-3.21-2.39l.67-3.75,1.52,.75,2.37,1.17-1.48,.6-3.08,1.24Zm4.72-2.06l-2.05-1.01-1.88-.93,.17-.19,3.06-3.33,.36,2.83,.34,2.63Zm-1.75-9.67l2.22-1.03-1.13,4.66-2.5-2.97,1.42-.66Zm3-9.18l.33-1.15,2.67,2.16-3.8,1.75,.8-2.75Zm.09-1.52l-3.26-.16,2.32-3.83,.38,1.59,.57,2.39Zm-3.47-8.78l3.47,.2-.94,3.91-2.53-4.11Zm1.05-18.52l-3.46-4.42,3.1-.35,1.17-.13-.12,.72-.69,4.19Zm.87-18.62l-.1-.27-1.56-4.28,3.4,.68-.76,1.68-.98,2.18Zm1.78-4.13l-3.36-.67,3.02-2.68,.24,2.39,.1,.96Zm-.53-3.53l-3.04,2.69-.62-2.39-.21-.8,3.46,.44,.41,.05Zm-15.67,.52l-3.99,5.11-1.34-4.94,5.34-.18Zm-5.6,.22l1.35,4.97-5.46-1.99-2.04-.74,.83-.3,5.32-1.93Zm-10.12,3.32l-3.46,1.18-.21-3.22-.09-1.36,6.94,2.32-3.18,1.08Zm-4.03-3.41l.3,4.57-5.97-2.63,1.87-.64,3.8-1.3Zm-7.03,8.87l-7.06-4.88,7.91-1.91-.85,6.78Zm-9.43-3.39l-2.97,2.5-3.32-5.39,8.03,1.42-1.74,1.47Zm-19.5-1.77l6.48-7.11,.28,9-6.76-1.89Zm-.35,.25l1.44,9.32-7.83-5.28-1.84-1.24,.32-.11,7.9-2.7Zm-18.18,.19l-1.27,8.31-6.67-8.06,7.94-.25Zm-1.48,8.47l-13.32-1.08,6.49-6.95,.09-.1,6.03,7.27,.71,.86Zm-16.91-16.02l9.99,7.7-6.61,7.08-3.38-14.77Zm3.12,14.82l-8.05-3.58-3.24-1.44,7.88-9.83,3.4,14.85Zm-18.95,1.57l-.24,.21-.48-2.08-1.56-6.73,9.46,2.13-7.18,6.47Zm-.5,.23l-9.99-4.6,7.95-4.21,2.04,8.81Zm-10.43-4.79l-9.09-3.94,8.62-7.92,.46,11.86Zm-35.67-.43l5.16,14.63,.09,.25-15.14-8.43,2.48-1.61,7.42-4.83Zm-21.95-.17l1.04,19.37-11.43-11.32-1.14-1.13,11.47-7.9,.05,.99Zm-11.84,6.72l-10.39-3.75-2.75-.99,15.6-13.2-.18,1.32-2.28,16.63Zm-16.35,9.11l-12.29,11.97-1.56-17.91-.21-2.41,5.79,3.44,8.27,4.91Zm-27.97,3.87l-2.42,2.23-2.72-17.52,18.6,2.92-13.46,12.38Zm-15.31-1.44l-11.52-3.41,21.43-10.41,2.72,17.56-12.63-3.74Zm-27.35,6.95l-3.21,2.18-5.43-18.89,23.8,6.43-15.15,10.28Zm-9.09-16.79l-5.75,7.42-8.87,11.46-6.59-21,21.2,2.12Zm-38.74,8.02l-16.76-13.18,12.2-14.5,4.56,27.68Zm-29.22,2.85l-25.76-5.18,20.44-25.35,4.12,23.66,1.2,6.87Zm-129.09,1.95l-30.72,16.42-9.79,5.23V29.01l5.05,1.13,35.46,7.96Zm-40.98-9.11l-4.73,4.64-26.6,26.08-6.33-29.31,15.55-.58,22.11-.83Zm.65,30.96l40.57-21.69,.66,38.54-23.88-9.76-17.36-7.09Zm41.75,17.04l41.67-16.81-2.53,16.77-1.94,12.87-10.15-3.5-27.05-9.33Zm37.47,12.84l2.4-15.94,2.06-13.68,29.94,23.71-34.41,5.91Zm35.04-5.91l29.91-23.68v.09l-.88,28.39-25.1-4.15-3.92-.65Zm85.67,2.17l-5.85,28.24-11.88-14.64,17.73-13.59Zm18.06,10.26l-23.64,17.96,5.87-28.33,17.77,10.37Zm.49-.15l10.51-15.18,9.42,15.1h-1.25l-18.68,.08Zm20.4-.12l9.02-19.2,7.12,10.55,3.91,5.79-16.69,2.39-3.36,.48Zm49.65-15.3l14.34,14.91-22.18,2.26,7.84-17.17Zm14.94,14.98l13.74-8.27,2.65,13.38-.05-.02-16.35-5.09Zm60.56-8.56l3.77,15.9-10.04-6.32,6.27-9.57Zm31.21,20.39v-9.52l12.55,6-12.55,3.52Zm23.95-11.67l7.11,3.48,3.17,1.55-8.51,4.68-1.44-7.87-.34-1.84Zm18.78-.34l.88,9.98-8.83-4.63,7.95-5.35Zm44.9,6.23l1.63,6.7-7.48-1.28,5.85-5.42Zm20.77,7.1l2.54-4.64,4.9,3.33-7.44,1.31Zm2.72-4.84l3.5-2.64,.33-.25,1.05,6.21-4.49-3.05-.39-.26Zm22.25,2.55l2.57-.73-1.17,4.14-4.55-2.52,3.15-.89Zm1.68,3.41l1.15-4.09,3.13,2.65-3.55,1.2-.73,.25Zm2.89-.7l1.46-.49-.78,3.17-3.43-1.75,2.75-.93Zm1.73-.45l3.08,2.67-3.86,.49,.78-3.17Zm3.27,2.49l-3.05-2.65,3.24-.5-.02,.29-.17,2.86Zm-2.88-11.4l1.24-2.29,.59-1.09,3.97,4.19-5.8-.81Zm.3-13.41l-3.02-1.81-.21-.13,3.5-1.41,1.04-.42-.55,1.59-.76,2.18Zm.92-9.79l4.7,1.48-3.99,4.03-.71-5.5Zm.95-5.58l-1.23-.52-1.99-.84,2.85-3.05,.26,3.09,.11,1.32Zm1.08-18.17l-.47-1.75-.46-1.71,3.57,1.33-2.65,2.13Zm-1.03-3.9l-1.09-4.77,4.77,1.98-2.49,1.88-1.2,.91Zm-.12-8.35l.28-.93,3.49,1.89-4.72,2.15,.94-3.11Zm3.81-12.75l-4.19,1.39,.25-1.34,.56-3.06,1.95,1.73,1.44,1.28Zm-3.29-3.47l.72-3.08,2.55,2-1.27,.42-2,.66Zm3.29-10.18l-4.22,1.76,1.73-3.85,.39,.33,2.09,1.76Zm-2.43-2.55l-.33-3.31,2.76,1.37-2.43,1.94Zm-5.06-4.12l-4.15,2.12,1.8-4.29,2.34,2.17Zm-4.72,2.21l-6.14-1.23,2.85-3.17,3.3,4.39Zm-26.56-1.11l-5.66,1.93,.61-1.48,1.54-3.72,3.52,3.27Zm-23.1,2.62l-5.71,3.18-.27-8.97,5.98,5.79Zm-21.31,4.11l5.35-9.91,2.82,7.12-8.17,2.79Zm-9.59-2.56l4.42-7.38,4.65,9.97-9.07-2.59Zm-.48-.04l-4.84,.16-3.09,.1,1.62-7.58,6.3,7.33Zm-69.46,4.62l-11-.84,4.19-11.12,8.63,12.1-1.83-.14Zm-11.4-.74l-5.78,3.77-4.12,2.68-2.52-17.61,12.42,11.16Zm-12.69-11.2l2.51,17.6-11.36-7.61,8.84-9.99Zm-34.52,13.46l-2.66,13.38-14.01-8.32,15.06-4.57,1.6-.49Zm-35.81,1.93l11.11-15.42,7.5,18.34-18.61-2.92Zm-46.24,4.09l8.98-16.87,1.4-2.62,13.47,25.94-23.85-6.44Zm-21.66-2.2l6-17.31,15.16,19.43-21.17-2.12Zm-34.66-2.73l-11.85,15.83-5.29-30.35,17.13,14.51Zm-149.65,15.77l-31.91-7.16L92.21,5.52l19.51,32.33-8.58-1.92Zm-64.66-6l-5.41,.2L49.75,5.51l20.95,23.21-32.21,1.2ZM4.29,41.96l34.66,18L4.29,77.97V41.96Zm33.73,48.03l32.68,1.22-20.95,23.2-16.67-24.61,4.94,.18Zm33.2,1.16l35.09-11.86,6.08-2.06-20.18,37.17-20.99-23.25Zm78.92-1.09l-18.25,24.32-18.96-37.15,37.21,12.83Zm85.25,24.26l-20.44-25.35,25.76-5.18-1.2,6.87-4.12,23.66Zm5.56-30.38l1.71,2.21,10.46,13.49-17.46,14.65,5.29-30.36Zm56.98,12.5l11.73-.05-9.83,10.92-6.33,7.04-3.8-17.88,8.24-.03Zm84.73,2.06l8.52,2.65-3.58,13.18-12.82-18.28,7.88,2.45Zm8.95,2.61l12.42-4.15,1.03-.34,2.16,17.7-6.37-5.39-9.23-7.81Zm62.52,.66l12.14-3.72v9.52l-8.87-4.23-3.28-1.56Zm25.07,2.55l-5.37,10.1-7.16-6.58,12.53-3.52Zm21.72-3.15l-.29,13.14-8.26-8.44,8.54-4.69Zm38.47,8.1l-2.5,2.74-2.16,2.36-3.28-9.45,7.94,4.34Zm.35-.2l.04-6,7.87,4.2-5.71,1.3-2.2,.5Zm16.45-.37l5.41-3.24,.46,8.84-5.87-5.61Zm5.82-3.47l5.29-2.91,.7,5.86-2.4-1.18-3.59-1.77Zm12.42,3.97l-.93,1.14-3.28,4.03-1.88-5.8,6.09,.64Zm7.99-1.34l-4.8,6.52-2.73-5.19,7.53-1.33Zm7.54,5.12l-1.6-2.21,3.92-.06-1.32,3.64-.99-1.37Zm6.35-5.25l.55,6.58-4.19-3.73,3.64-2.85Zm13.44,3.7v-.05l.19-3.07h.02l2.55,1.75-1.36,.67-1.4,.69Zm2.69-24.29l-4.41-.41-.86-.08,1.33-3.83,3.71,4.05,.25,.27Zm.07-13.5l-4.64,2.68,.22-.91,.92-3.8,1.2,.7,2.29,1.33Zm-3.46-2.45l-.17-1.97-.21-2.48,3.85,2.34-1.39,.84-2.09,1.26Zm3.59-6.93l-2.64-2.13,2.64-1.89v4.02Zm-3.72-6.87l.94-3.89,1.06,.76,1.6,1.15-1.73,.95-1.88,1.03Zm3.72-2.22l-2.64-1.9,2.64-2.12v4.02Zm0-8.59v4.1l-3.63-1.35,2.61-1.98,1.02-.77Zm-4.76-2.44l4.76-2.17v4.15l-4.76-1.98Zm4.76-11.29v4.16l-5.02-2.02,.35-.15,4.67-1.99Zm-5.2,1.93l.81-4.93,.91,.6,3.33,2.18-5.05,2.16Zm1.01-5.12l3.46-1.15,.72-.24v4.13l-2.37-1.55-1.81-1.19Zm.84-4.84l1.27-.42,2.07-.68v4.08l-2.74-2.44-.6-.54Zm3.34-10.68l-2.44-2.05,2.44-1.95v4Zm-7.38-6.58l-2.28-2.12h4.57l-2.28,2.12Zm-9.81-.7l-1.54,1.71-2.63-3.12h5.44l-1.27,1.41Zm-4.45-1.33l2.63,3.12-5.23,.17,.48-.61,2.12-2.69Zm-6.43,.01l3.31,3.37-6.12,2.22,2.78-5.55,.02-.04Zm-16.98,5.35l-2.91,.7-5.01,1.21,2.6-7.24,3.14,3.14,2.18,2.19Zm-35.96-.16l-2.57,4.75-4.68-10.03h10.1l-2.85,5.28Zm-18.99-4.89l-1.55,7.25-9.92-7.64h11.55l-.08,.39Zm-30.17,7.39l-7.98,4.23-.46-11.84,4.85,4.37,3.6,3.24Zm-17.55,.14l-2.25-3.13-3.45-4.79h14.33l-8.62,7.92Zm-26.36,3.24l-12.42-11.16h16.62l-4.2,11.16Zm-22.09-.99l-11.43,7.87,2.45-17.87,7.08,7.88,1.9,2.11Zm-25.04,3.04l-3.59-13.21h19.19l-15.6,13.21Zm-138.46,1.3l-17.13-14.51h29.34l-12.21,14.51Zm-38.44,11.01l-29.02,4.8,17.8-30.16,7.16,16.18,4.06,9.18Zm-102.52,6.84L92.47,5.43h39.17l-19.64,32.36Zm-41.01-9.15L50.03,5.43h41.91l-20.95,23.21Zm-38.41,1.58L4.29,41.55V5.59L30.29,28.24l2.28,1.99ZM4.29,114.34v-35.96l28.28,11.32-2.28,1.99L4.29,114.34Zm66.69-23.05l20.95,23.21H50.03l20.95-23.21Zm132.32,23.05l-17.8-30.16,29.02,4.8-4.06,9.17-7.16,16.19Zm41-6.95l8.99-7.54,11.89,14.65h-29.34l8.47-7.11Zm45.14-10.82l3.81,17.93h-27.41l23.6-17.93Zm54.36,17.78l-9.39-14.97-3.68-5.87,20.85,4.69-2.1,4.35-5.68,11.8Zm22.66,.03l-14.42-16.17,22.2-2.26-1.39,3.29-6.39,15.14Zm5.3-11.87l2.72-6.44,12.92,18.42h-20.7l5.06-11.98Zm19.66-1.22l15.6,13.2h-19.19l3.59-13.2Zm34.56,13.01l3-17.26,10.02,6.31,.08,.05-4.57,3.8-8.53,7.1Zm13.5-10.8l13.98-1.59-10.46,12.45-3.48-10.76-.03-.11Zm14.54-1.49l6.17,2.94,5.99,2.86-7.18,6.59-.87-2.16-4.11-10.23Zm12.39,5.95l7.12,6.54h-14.24l7.12-6.54Zm44.08-2.02l9.22,.49-6.49,7.6-.28,.33-.05-.17-2.4-8.25Zm9.69,.47l10.76-1.58-6.75,9.55-2.4-4.77-1.6-3.19Zm33.45,7.95l-5.29-6.86,1.31,.22,6.14,1.05-.86,2.23-1.3,3.36Zm8.69-.05l-.46-8.86,.25,.12,5.82,2.87-3.67,3.85-1.94,2.03Zm8.61-.42l3.72-4.57,2.72,5.17h-6.93l.49-.6Zm11.99-5.96l4.96,2.74-3.29,3.68-1.23-4.75-.43-1.67Zm5.16,2.92l2.64,3.64h-5.9l3.26-3.64Zm9.04,3.48l-.4-4.82-.15-1.81,2.81,1.56,1.8,1-2.5,2.51-1.55,1.56Zm8.13-1.95l2.28,2.12h-4.57l2.28-2.12Zm2.59,2.04l-2.29-2.12,3.8-.49-.29,.5-1.22,2.11Zm1.98-2.74l1.06-.53,1.74-.86v4.04l-1.09-1.03-1.71-1.61Zm-1.12-15.44l3.92-4.06v4.09l-3.92-.04Zm3.92,.3v4.09l-3.92-4.13,3.92,.04Zm-3.89-13.83l3.89,.16v4.09l-3.73-4.08-.16-.17Zm3.89-8.85v4.15l-4.64-1.46,4.09-2.37,.55-.32Zm0-.46l-3.45-2,3.45-2.09v4.09Zm0-13.67l-3.65-2.1,3.65-2v4.1Zm0-18.21l-3.47-1.89,3.47-2.21v4.09Zm-.47-23.04l-3.82-2.08,4.29-1.79v4.13l-.47-.26Zm.47-12.88v4.04l-1.74-.86-1.06-.53,1.77-1.67,1.03-.97Zm-.2-.17l-.69,.66-2.1,1.99-1.53-2.64h4.32Zm-9.99,0l-1.85,4.4-3.3-4.4h5.16Zm-13.31,2.03l-1.01,1.29-3.26-3.32h5.87l-1.6,2.03Zm-4.8-2.03l-.96,1.91-1.88,3.75-3.48-5.41-.16-.25h6.47Zm-7.04,0l-.64,.63-2.65,2.6-3.48-3.23h6.77Zm-7.3,0l-2.18,5.28-2.02-2.03-3.24-3.25h7.45Zm-7.95,0l-2.61,7.26-1.14-1.51-4.34-5.75h8.09Zm-8.56,0l-2.65,5.78-5.97-5.78h8.62Zm-15.75,7.14l-2.82-7.14h9.32l-6.5,7.14Zm-18.2,.25l-6.35-7.38h10.77l-4.42,7.38Zm-19.02-7.38l-7.86,9.8-4.64-9.8h12.49Zm-12.95,0l-4.88,7.61-8.31-7.49-.13-.12h13.33Zm-28.83,0l-2.07,3.67-4.78,8.49-8.67-12.16h15.52Zm-33.23,0l-8.84,9.99-7.93-8.83-1.04-1.16h17.81Zm-38.09,0l-3.73,5.2-9.45,13.18-7.51-18.38h20.7Zm-21.16,0l-11.12,15.43-5.84-8.16-5.21-7.27h22.17Zm-22.62,0l-10.42,25.98-13.49-25.98h23.91Zm-24.35,0l-10.38,19.49-13.63-17.47-1.58-2.02h25.59Zm-26.04,0l-3.56,10.27-2.45,7.07-21.39-17.34h27.41Zm-78.49,25.37l-11.22-25.37h31.67l-20.45,25.37Zm-11.66-25.37l-17.84,30.22-16.18-30.22h34.02Zm-34.51,0l-18,23.26-18.42-23.26h36.42Zm-119.09,0l-16.69,24.64L4.51,5.43H49.48Zm-16.69,84.43l16.69,24.64H4.51l28.28-24.64Zm71.49,2.86l8.38-15.44,18.99,37.22h-39.2l11.82-21.77Zm27.86,21.77l18.22-24.28,18.22,24.28h-36.44Zm53.11-30.22l17.84,30.22h-34.02l16.18-30.22Zm18.27,30.22l11.22-25.37,20.45,25.37h-31.67Zm90.2,0l16.21-18.01,9.36,18.01h-25.56Zm36.75-20.91l13.12,20.91h-23.87l10.75-20.91Zm19.29,9.03l2.05-4.27,8.31,9.32,6.09,6.83h-22.18l5.72-11.88Zm67.51-.54l8.27,12.43h-17.88l9.61-12.43Zm14.87,7.45l7.1-5.91,3.53,10.89h-16.61l5.98-4.98Zm12.68,3.08l8.91-10.61,.94,2.35,4.08,10.15h-15.52l1.59-1.89Zm29.27,1.89l5.4-10.15,8.03,10.15h-13.42Zm13.91,0l3.52-7.06,.68-1.37,8.25,8.44h-12.45Zm19.35-5.79l2.89-2.67,.66,2.27,1.8,6.19h-11.59l6.25-5.79Zm5.81,5.79l6.79-7.96,2.72,5.41,1.28,2.54h-10.79Zm11.26,0l6.76-9.56,1.69,4.87,1.63,4.7h-10.09Zm10.57,0l4.62-5.06,1.06,1.17,3.54,3.9h-9.22Zm9.73,0l3.34-6.93,5.34,6.93h-8.68Zm11.3-5.59l5.85,5.59h-8.02l2.16-5.59Zm8.98,2.98l3.09-3.23,1.89,5.84h-7.47l2.49-2.61Zm12.85,2.61l.02-.03,4.78-6.5,1.69,6.52h-6.49Zm14.66-3.7l1.73,1.54,2.42,2.16h-5.49l1.34-3.7Zm4.81,3.7l.88-.88,3.12-3.13,.41,1.46,.72,2.55h-5.13Zm10.77,0l1.53-2.64,2.21,2.08,.59,.56h-4.32Z"
     id="path6" />
</svg>
